<svg width="16" height="16" viewBox="0 0 16 16" fill="none" xmlns="http://www.w3.org/2000/svg">
<path d="M8 0C3.58892 0 0 3.58868 0 8C0 12.4113 3.58892 16 8 16C12.4111 16 16 12.4113 16 8C16 3.58868 12.4111 0 8 0ZM8 15.0154C4.13169 15.0154 0.984615 11.8683 0.984615 8C0.984615 4.13169 4.13169 0.984615 8 0.984615C11.8683 0.984615 15.0154 4.13169 15.0154 8C15.0154 11.8683 11.8683 15.0154 8 15.0154Z" fill="#001807"/>
<path d="M8.12758 5.63346C8.58233 5.63346 8.95097 5.26482 8.95097 4.81008C8.95097 4.35534 8.58233 3.98669 8.12758 3.98669C7.67284 3.98669 7.3042 4.35534 7.3042 4.81008C7.3042 5.26482 7.67284 5.63346 8.12758 5.63346Z" fill="#001807"/>
<path d="M7.91077 6.97644C7.63901 6.97644 7.41846 7.19699 7.41846 7.46875V11.6534C7.41846 11.9251 7.63901 12.1457 7.91077 12.1457C8.18252 12.1457 8.40307 11.9251 8.40307 11.6534V7.46875C8.40307 7.19675 8.18252 6.97644 7.91077 6.97644Z" fill="#001807"/>
</svg>
