<svg width="20" height="20" viewBox="0 0 20 20" fill="none" xmlns="http://www.w3.org/2000/svg">
<path d="M10 20C15.5147 20 20 15.5147 20 10C20 4.48529 15.5147 0 10 0C4.48529 0 0 4.48529 0 10C0 15.5147 4.48529 20 10 20ZM10 0.808824C15.0694 0.808824 19.1912 4.93056 19.1912 10C19.1912 15.0694 15.0694 19.1912 10 19.1912C4.93056 19.1912 0.808824 15.0694 0.808824 10C0.808824 4.93056 4.93056 0.808824 10 0.808824Z" fill="white"/>
<path d="M8.12546 13.0997C8.20695 13.1812 8.31847 13.2241 8.4257 13.2241C8.53293 13.2241 8.64445 13.1812 8.72595 13.0997L11.9128 9.91284C11.9943 9.83134 12.0372 9.72411 12.0372 9.61259C12.0372 9.50107 11.9943 9.39384 11.9128 9.31235L8.72595 6.12546C8.55867 5.95818 8.29274 5.95818 8.12546 6.12546C7.95818 6.29274 7.95818 6.55867 8.12546 6.72595L11.0121 9.61259L8.12546 12.4992C7.96247 12.6665 7.96247 12.9367 8.12546 13.0997Z" fill="white"/>
</svg>
