<svg width="16" height="16" viewBox="0 0 16 16" fill="none" xmlns="http://www.w3.org/2000/svg">
<g clip-path="url(#clip0)">
<path d="M15.3198 0.325513H15.3199C15.7367 0.325999 16.0745 0.663772 16.075 1.08059V1.08068V9.33121V9.33151C16.0733 9.74737 15.7356 10.0835 15.3198 10.0832M15.3198 0.325513V10.0082M15.3198 0.325513L4.14374 0.325513L4.14365 0.325513C3.72683 0.325999 3.38906 0.663772 3.38857 1.08059V1.08068V3.91561L3.01502 3.35528C3.01501 3.35526 3.015 3.35525 3.01499 3.35523L15.3198 0.325513ZM15.3198 10.0832L15.3198 10.0082M15.3198 10.0832H15.3198V10.0082M15.3198 10.0832H5.07048M15.3198 10.0082H4.99842C5.02206 10.0329 5.04606 10.0579 5.07048 10.0832M5.07048 10.0832C5.1405 10.1557 5.21392 10.2306 5.29195 10.3086C6.43856 11.4552 7.00396 11.7633 7.45711 12.0103L7.45906 12.0114L7.45935 12.0115L7.59886 12.0884L7.59889 12.0884C7.67722 12.1316 7.77535 12.1108 7.82944 12.0396L7.82996 12.0389L8.56296 11.0966L8.56313 11.0964C8.84268 10.7397 9.34929 10.6575 9.72726 10.9075L9.72749 10.9076L12.2451 12.5859L7.42317 12.0772C6.96412 11.827 6.39279 11.5155 5.23891 10.3616C5.14171 10.2644 5.05162 10.1721 4.96639 10.0832H5.07048ZM9.90821 15.6745C10.249 15.676 10.5885 15.6317 10.9175 15.5428L10.9182 15.5426C11.321 15.4296 11.6645 15.1652 11.8768 14.8048C11.8768 14.8047 11.8769 14.8046 11.8769 14.8045L12.5079 13.7526C12.7464 13.356 12.6306 12.842 12.2452 12.5859L2.95251 3.39672C2.71857 3.04385 2.24811 2.93798 1.88559 3.15666L1.84694 3.09238L1.84685 3.09244L0.795834 3.72433C0.434939 3.93622 0.170199 4.2797 0.0572194 4.68267L0.0572184 4.68267L0.0571126 4.68305C-0.336534 6.11639 -0.0321916 8.54913 3.50925 12.0911L3.50928 12.0911C6.32517 14.9041 8.4372 15.6744 9.90821 15.6745ZM9.90821 15.6745C9.90814 15.6745 9.90807 15.6745 9.908 15.6745L9.90835 15.5995V15.6745C9.9083 15.6745 9.90826 15.6745 9.90821 15.6745ZM11.2898 14.4537L11.2902 14.4529L11.9215 13.4004L11.2898 14.4537ZM11.2898 14.4537C11.1677 14.663 10.9695 14.8169 10.7366 14.8834C9.51365 15.2195 7.33376 14.9473 3.99322 11.6066C0.652709 8.26581 0.381585 6.08611 0.716946 4.86422C0.78337 4.63133 0.937222 4.43313 1.14636 4.31104L1.14637 4.31105M11.2898 14.4537L1.14637 4.31105M1.14637 4.31105L1.14714 4.31058M1.14637 4.31105L1.14714 4.31058M1.14714 4.31058L2.19956 3.67903M1.14714 4.31058L2.19956 3.67903M3.44672 8.03786L3.52355 8.1779L3.44672 8.03786ZM3.44672 8.03786C3.38546 7.92721 3.41478 7.78836 3.51555 7.71191L3.44672 8.03786ZM7.26682 12.6855L7.132 12.6115C6.63767 12.3418 6.02327 12.0058 4.80895 10.7918C3.59476 9.57791 3.25902 8.96325 2.98935 8.46865C2.98933 8.46861 2.9893 8.46856 2.98928 8.46852L2.91499 8.33372C2.91495 8.33364 2.9149 8.33356 2.91486 8.33348C2.70646 7.96055 2.80326 7.49119 3.14214 7.23109C3.1422 7.23104 3.14226 7.231 3.14232 7.23095L4.08436 6.49817C4.08439 6.49815 4.08442 6.49813 4.08444 6.49811C4.15983 6.439 4.17722 6.33189 4.12441 6.25193C4.12439 6.2519 4.12437 6.25187 4.12435 6.25184L2.44546 3.73445L7.26682 12.6855ZM7.26682 12.6855C7.26689 12.6856 7.26696 12.6856 7.26703 12.6857C7.64005 12.8941 8.10951 12.7973 8.36969 12.4584M7.26682 12.6855L8.36969 12.4584M8.36969 12.4584C8.36974 12.4583 8.36979 12.4583 8.36983 12.4582L9.10232 11.5165C9.10234 11.5165 9.10237 11.5165 9.10239 11.5164C9.1616 11.4411 9.26863 11.4237 9.34862 11.4764C9.34866 11.4764 9.34871 11.4765 9.34875 11.4765L11.8661 13.1546C11.9472 13.2086 11.9716 13.3168 11.9216 13.4004L8.36969 12.4584ZM2.19956 3.67903C2.19958 3.67902 2.19961 3.679 2.19964 3.67898M2.19956 3.67903L2.19964 3.67898M2.19964 3.67898C2.28326 3.62909 2.39134 3.65346 2.44544 3.7344L2.19964 3.67898ZM15.3915 9.33203C15.3902 9.37019 15.3588 9.40056 15.3204 9.40028H15.3198H4.44781C4.11471 9.01541 3.82687 8.59357 3.58994 8.14299L3.58995 8.14298L3.58931 8.14182L3.51248 8.00178L3.51234 8.00153C3.46913 7.9235 3.4898 7.82558 3.56088 7.77166L3.56089 7.77166L3.5616 7.7711L4.50424 7.03786L4.50444 7.0377C4.86124 6.75822 4.94344 6.25151 4.69331 5.87354L4.69318 5.87335L4.07201 4.94106L4.07202 1.08068L4.07201 1.07984C4.0718 1.06098 4.0792 1.04283 4.09253 1.0295C4.10585 1.01617 4.124 1.00877 4.14287 1.00898V1.00899H4.14371L15.3198 1.00899L15.3207 1.00898C15.3395 1.00877 15.3577 1.01617 15.371 1.0295C15.3843 1.04283 15.3917 1.06098 15.3915 1.07984V1.08068V9.33124V9.33203Z" fill="#001807" stroke="#001807" stroke-width="0.15"/>
<path d="M14.7685 2.12024C14.8408 2.06545 14.8884 1.98415 14.9007 1.89427C14.913 1.80444 14.8891 1.71337 14.8342 1.64116C14.7201 1.49101 14.506 1.46167 14.3557 1.57551L14.3557 1.57554L9.89843 4.95587C9.79885 5.02786 9.66432 5.02786 9.56473 4.95588L5.10913 1.57555L5.10912 1.57554C4.95871 1.46146 4.74428 1.49092 4.63023 1.64133L4.68998 1.68665L4.63022 1.64134C4.51614 1.79174 4.54561 2.00617 4.69602 2.12022L4.74133 2.06047L4.69603 2.12023L9.15284 5.50077L9.15283 5.50077L9.1536 5.50134C9.49716 5.75515 9.96608 5.75515 10.3096 5.50134L10.3097 5.50134L10.3104 5.50078L14.7685 2.12024ZM14.7685 2.12024L14.7232 2.06046L14.7686 2.12022L14.7685 2.12024Z" fill="#001807" stroke="#001807" stroke-width="0.15"/>
<path d="M7.40342 5.40931L7.40334 5.40923L7.40058 5.41219L4.6682 8.33825L4.66816 8.33829C4.53945 8.47633 4.54702 8.69261 4.68506 8.82132C4.82309 8.95002 5.03935 8.94247 5.16806 8.80445C5.16807 8.80444 5.16808 8.80443 5.16809 8.80442L7.90048 5.87708L7.90057 5.87717L7.90339 5.87376C8.01906 5.73423 8.00562 5.52868 7.87289 5.40531L7.87288 5.4053C7.74009 5.28192 7.53409 5.28369 7.40342 5.40931Z" fill="#001807" stroke="#001807" stroke-width="0.15"/>
<path d="M11.5808 5.8785L11.5808 5.87853L14.3124 8.80458C14.3124 8.80459 14.3124 8.8046 14.3124 8.80461C14.4411 8.94261 14.6574 8.95021 14.7954 8.82147C14.9335 8.69277 14.9411 8.47652 14.8123 8.33844L14.8123 8.33841L12.0807 5.41237C12.0807 5.41236 12.0807 5.41234 12.0807 5.41233C11.952 5.27431 11.7357 5.26672 11.5977 5.39547C11.4596 5.52417 11.452 5.74042 11.5808 5.8785Z" fill="#001807" stroke="#001807" stroke-width="0.15"/>
</g>
<defs>
<clipPath id="clip0">
<rect width="16" height="16" fill="white"/>
</clipPath>
</defs>
</svg>
