<svg width="20" height="20" viewBox="0 0 20 20" fill="none" xmlns="http://www.w3.org/2000/svg">
<path d="M5.27086 10.652H7.46316V19.6774C7.46316 19.8556 7.60754 20 7.78574 20H11.5029C11.6811 20 11.8255 19.8556 11.8255 19.6774V10.6945H14.3457C14.5096 10.6945 14.6475 10.5716 14.6662 10.4088L15.049 7.08609C15.0595 6.99469 15.0305 6.90313 14.9694 6.83453C14.9082 6.7659 14.8205 6.7266 14.7286 6.7266H11.8256V4.64375C11.8256 4.0159 12.1637 3.6975 12.8305 3.6975C12.9256 3.6975 14.7286 3.6975 14.7286 3.6975C14.9068 3.6975 15.0512 3.55305 15.0512 3.37492V0.324961C15.0512 0.146758 14.9068 0.00238281 14.7286 0.00238281H12.1128C12.0943 0.00148437 12.0534 0 11.993 0C11.5391 0 9.96148 0.0891015 8.71527 1.23555C7.33449 2.50602 7.52645 4.02715 7.5723 4.2909V6.72652H5.27082C5.09262 6.72652 4.94824 6.8709 4.94824 7.0491V10.3294C4.94828 10.5075 5.09266 10.652 5.27086 10.652Z" fill="#385C8E"/>
</svg>
