<svg width="20" height="20" viewBox="0 0 20 20" fill="none" xmlns="http://www.w3.org/2000/svg">
<g clip-path="url(#clip0)">
<path d="M7.01704 11.3202H10.1417C9.59326 12.8709 8.10777 13.9827 6.36866 13.9699C4.25848 13.9543 2.51366 12.2662 2.43174 10.1575C2.34392 7.89722 4.15732 6.03036 6.39847 6.03036C7.4232 6.03036 8.35833 6.42081 9.06333 7.0606C9.23031 7.21217 9.4845 7.21313 9.64873 7.05854L10.7964 5.97838C10.9759 5.80943 10.9765 5.52413 10.7976 5.35461C9.67954 4.2954 8.17974 3.63519 6.52582 3.60289C2.9982 3.53402 0.0247311 6.42631 0.000159169 9.95454C-0.024631 13.5093 2.8495 16.3986 6.39847 16.3986C9.81144 16.3986 12.5995 13.7263 12.7863 10.36C12.7913 10.3178 12.7946 8.89149 12.7946 8.89149H7.01704C6.78023 8.89149 6.58828 9.08344 6.58828 9.32025V10.8914C6.58828 11.1282 6.78027 11.3202 7.01704 11.3202Z" fill="#F34A38"/>
<path d="M18.0891 9.03402V7.49891C18.0891 7.29138 17.9209 7.12317 17.7134 7.12317H16.4213C16.2138 7.12317 16.0456 7.29138 16.0456 7.49891V9.03402H14.5105C14.303 9.03402 14.1348 9.20222 14.1348 9.40975V10.7018C14.1348 10.9093 14.303 11.0775 14.5105 11.0775H16.0456V12.6127C16.0456 12.8202 16.2138 12.9884 16.4213 12.9884H17.7134C17.9209 12.9884 18.0891 12.8202 18.0891 12.6127V11.0775H19.6242C19.8318 11.0775 20 10.9093 20 10.7018V9.40975C20 9.20222 19.8318 9.03402 19.6242 9.03402H18.0891Z" fill="#F34A38"/>
</g>
<defs>
<clipPath id="clip0">
<rect width="20" height="20" fill="white"/>
</clipPath>
</defs>
</svg>
