<svg width="40" height="40" viewBox="0 0 40 40" fill="none" xmlns="http://www.w3.org/2000/svg">
<path d="M30.37 29.8243C29.7437 30.4941 29.1394 31.1583 28.5491 31.807C27.1572 33.3367 25.8436 34.7805 24.505 36.009C22.6066 37.7511 20.7299 38.9883 18.6407 39.3672L18.6395 39.3675C16.552 39.7515 14.1747 39.2853 11.841 38.168C9.5111 37.0526 7.25842 35.3033 5.43693 33.1761C1.79633 28.9151 -0.115894 23.1636 0.677891 17.2886L0.677982 17.2879C1.46497 11.4015 4.97852 5.41996 10.42 2.55334L10.4205 2.55303C15.8685 -0.326221 23.329 -0.117882 29.2992 2.80708L29.3 2.80749C32.2844 4.26263 34.8882 6.38845 36.7185 8.76339C38.5524 11.1431 39.5824 13.7352 39.4948 16.1295L39.4948 16.1305C39.4119 18.522 38.2119 20.8099 36.4616 23.0911C35.1459 24.8058 33.5577 26.4706 31.959 28.1463C31.4273 28.7037 30.8944 29.2622 30.37 29.8243ZM30.37 29.8243C30.3701 29.8242 30.3701 29.8241 30.3702 29.8241L30.7354 30.1656L30.3698 29.8245C30.3699 29.8244 30.3699 29.8243 30.37 29.8243Z" stroke="#31C851"/>
</svg>
