<svg width="20" height="18" viewBox="0 0 20 18" fill="none" xmlns="http://www.w3.org/2000/svg">
<path d="M10.3058 1.04969L10.3058 1.04969L18.838 7.27908C19.0687 7.44754 19.119 7.77069 18.9499 8.00081C18.9499 8.00082 18.9499 8.00082 18.9499 8.00083L18.9096 7.97122C18.818 8.09602 18.6759 8.1621 18.5319 8.1621C18.436 8.1621 18.3392 8.13283 18.256 8.07201L10.3058 1.04969ZM10.3058 1.04969C10.1237 0.916773 9.87633 0.916764 9.6943 1.04969C9.6943 1.0497 9.6943 1.0497 9.69429 1.0497L1.16196 7.27908L1.19145 7.31946L1.16196 7.27908C0.931251 7.44754 0.881051 7.7707 1.05007 8.00085C1.21902 8.23091 1.54292 8.28076 1.77351 8.11243L1.77351 8.11243L10 2.10625L18.2265 8.11238L10.3058 1.04969Z" fill="#07834E" stroke="#2CBF4F" stroke-width="0.1"/>
<path d="M16.0302 8.64409C16.0302 8.35878 16.2622 8.12773 16.5479 8.12773C16.8337 8.12773 17.0656 8.35878 17.0656 8.64412V16.5336C17.0656 16.8189 16.8337 17.05 16.548 17.05H11.8712C11.599 17.05 11.3763 16.8403 11.3555 16.574C11.3555 16.5738 11.3555 16.5736 11.3555 16.5733L16.0302 8.64409ZM16.0302 8.64409V16.0172M16.0302 8.64409V16.0172M16.0302 16.0172H12.3888V12.0152C12.3888 10.7016 11.3172 9.63326 10.0003 9.63326C8.68332 9.63326 7.61166 10.7017 7.61166 12.0152V16.0172H3.97023V8.64412C3.97023 8.35881 3.73828 8.12777 3.45255 8.12777C3.16681 8.12777 2.93486 8.35881 2.93486 8.64412V16.5336C2.93486 16.8189 3.16681 17.05 3.45255 17.05H8.12935C8.40135 17.05 8.62406 16.8406 8.645 16.5744C8.64498 16.5747 8.64496 16.5749 8.64494 16.5751L16.0302 16.0172Z" fill="#07834E" stroke="#2CBF4F" stroke-width="0.1"/>
</svg>
