<svg width="20" height="20" viewBox="0 0 20 20" fill="none" xmlns="http://www.w3.org/2000/svg">
<mask id="path-1-outside-1" maskUnits="userSpaceOnUse" x="0" y="0" width="20" height="20" fill="black">
<rect fill="white" width="20" height="20"/>
<path d="M19.1506 10.9775H19.1239L17.2653 6.34706C17.7204 5.78133 17.4508 4.92399 16.772 4.73206L11.8512 3.34082C11.7489 3.10593 11.594 2.90078 11.4018 2.74144V2.00806C11.4018 1.45221 10.9638 1 10.4256 1C9.88732 1 9.44945 1.45221 9.44945 2.00806V2.74144C9.25716 2.90078 9.1022 3.10593 8.99991 3.34086L4.07903 4.7321C3.37615 4.93085 3.12292 5.83016 3.61886 6.38613L1.77597 10.9775C1.3 10.9775 1 11.3523 1 11.7513V12.018C1 12.4447 1.33614 12.7918 1.74935 12.7918H1.93341C2.94666 14.5691 5.43617 14.5661 6.44787 12.7918H6.63203C7.04521 12.7918 7.38135 12.4448 7.38135 12.018V11.7513C7.38135 11.3535 7.08275 10.9775 6.60531 10.9775L4.85012 6.6044L9.44941 5.30404V14.6418H9.36093C8.97415 14.6418 8.65938 14.9668 8.65938 15.3663C8.65938 15.7604 8.65499 15.7869 8.6754 15.8844H7.98426C7.57108 15.8844 7.23495 16.2316 7.23495 16.6583V17.1864C6.82841 17.1944 6.49995 17.5377 6.49995 17.9595V18.2262C6.49995 18.6529 6.83605 19 7.24927 19H9.77957C9.93251 19 10.0564 18.872 10.0564 18.7141C10.0564 18.5563 9.93247 18.4283 9.77957 18.4283H7.24927C7.14137 18.4283 7.05359 18.3376 7.05359 18.2262V17.9595C7.05359 17.848 7.14137 17.7574 7.24927 17.7574C7.48131 17.7574 13.2274 17.7574 13.6018 17.7574C13.7097 17.7574 13.7975 17.848 13.7975 17.9595V18.2262C13.7975 18.3376 13.7097 18.4283 13.6018 18.4283H11.0714C10.9185 18.4283 10.7946 18.5563 10.7946 18.7141C10.7946 18.872 10.9186 19 11.0714 19H13.6018C14.015 19 14.3512 18.6529 14.3512 18.2262V17.9595C14.3512 17.5378 14.0228 17.1944 13.6163 17.1864V16.6583C13.6163 16.2316 13.2801 15.8844 12.8669 15.8844H12.1757C12.1958 15.7881 12.1917 15.7654 12.1917 15.3663C12.1917 14.9669 11.8769 14.6418 11.4901 14.6418H11.4016V10.6879C11.4016 10.53 11.2777 10.4021 11.1248 10.4021C10.9719 10.4021 10.848 10.53 10.848 10.6879V14.6419H10.003V5.55383C10.2696 5.63243 10.5762 5.63354 10.848 5.5538V9.35382C10.848 9.51175 10.9719 9.63968 11.1248 9.63968C11.2777 9.63968 11.4016 9.51171 11.4016 9.35382V5.30404L16.0446 6.61683L14.2945 10.9774C13.8185 10.9774 13.5186 11.3523 13.5186 11.7512V12.0179C13.5186 12.4446 13.8548 12.7917 14.268 12.7917H14.4521C15.4651 14.5686 17.9546 14.5664 18.9666 12.7917H19.1507C19.5638 12.7917 19.9 12.4446 19.9 12.0179V11.7512C19.8999 11.3246 19.5638 10.9775 19.1506 10.9775ZM3.9138 7.14451V10.9775H2.37534L3.9138 7.14451ZM2.64651 12.8373H5.73476C4.91406 13.7921 3.46637 13.7913 2.64651 12.8373ZM6.63074 11.5492C6.63074 11.5492 6.63074 11.5492 6.63199 11.5492C6.73989 11.5492 6.82767 11.6399 6.82767 11.7513V12.018C6.82767 12.1294 6.73989 12.2201 6.63199 12.2201H1.74935C1.64145 12.2201 1.55367 12.1294 1.55367 12.018V11.7513C1.55367 11.6399 1.64145 11.5492 1.74935 11.5492C1.8794 11.5492 6.51778 11.5492 6.63074 11.5492ZM6.0059 10.9775H4.46747V7.14447L6.0059 10.9775ZM4.37511 6.1382C4.27183 6.14834 4.18519 6.1207 4.09955 6.0649C3.79944 5.85364 3.88117 5.38081 4.22528 5.28345L8.86322 3.97223C8.85875 4.2595 8.92874 4.55355 9.07817 4.81623C4.22698 6.18787 4.43613 6.13229 4.37511 6.1382ZM10.003 2.00806H10.0031C10.0031 1.76742 10.1926 1.57175 10.4255 1.57175C10.6586 1.57175 10.848 1.76749 10.848 2.00806V2.44643C10.5752 2.36718 10.2739 2.36722 10.003 2.44639V2.00806ZM12.8669 16.4562C12.9749 16.4562 13.0627 16.5469 13.0627 16.6583V17.1856H7.78866V16.6583C7.78866 16.5468 7.87644 16.4562 7.98434 16.4562C8.22561 16.4562 12.6808 16.4562 12.8669 16.4562ZM11.4901 15.2136C11.5717 15.2136 11.6381 15.2821 11.6381 15.3663V15.7318C11.6381 15.816 11.5717 15.8845 11.4901 15.8845H9.36093C9.27939 15.8845 9.21305 15.816 9.21305 15.7318V15.3663C9.21305 15.2821 9.27939 15.2136 9.36093 15.2136C9.61497 15.2136 11.2412 15.2136 11.4901 15.2136ZM10.4909 5.03961C10.0998 5.06576 9.73634 4.85671 9.54731 4.51188C9.04413 3.59047 10.0671 2.5362 10.9637 3.11939C11.792 3.66122 11.4573 4.97732 10.4909 5.03961ZM16.9861 7.14451L18.5246 10.9775H16.9861V7.14451ZM11.773 4.8163C11.9222 4.55111 11.9925 4.26266 11.9879 3.97231L16.6258 5.28353C16.8505 5.34707 16.9833 5.58757 16.9219 5.8196C16.8646 6.03547 16.6548 6.16736 16.4811 6.13164C16.4569 6.12657 16.4325 6.12497 16.4087 6.12654C16.3798 6.11903 11.8216 4.82999 11.773 4.8163ZM16.4325 7.14428V10.9775H14.894L16.4325 7.14428ZM15.1652 12.8373H18.2534C17.4328 13.7921 15.9851 13.7913 15.1652 12.8373ZM19.3463 12.018C19.3463 12.1294 19.2585 12.2201 19.1506 12.2201H14.2679C14.16 12.2201 14.0722 12.1294 14.0722 12.018V11.7513C14.0722 11.6399 14.16 11.5492 14.2679 11.5492C14.398 11.5492 18.826 11.5492 18.9389 11.5492C18.9392 11.5492 18.9395 11.5492 18.9397 11.5492H19.1507C19.2585 11.5492 19.3463 11.6399 19.3463 11.7513V12.018H19.3463Z"/>
</mask>
<path d="M19.1506 10.9775H19.1239L17.2653 6.34706C17.7204 5.78133 17.4508 4.92399 16.772 4.73206L11.8512 3.34082C11.7489 3.10593 11.594 2.90078 11.4018 2.74144V2.00806C11.4018 1.45221 10.9638 1 10.4256 1C9.88732 1 9.44945 1.45221 9.44945 2.00806V2.74144C9.25716 2.90078 9.1022 3.10593 8.99991 3.34086L4.07903 4.7321C3.37615 4.93085 3.12292 5.83016 3.61886 6.38613L1.77597 10.9775C1.3 10.9775 1 11.3523 1 11.7513V12.018C1 12.4447 1.33614 12.7918 1.74935 12.7918H1.93341C2.94666 14.5691 5.43617 14.5661 6.44787 12.7918H6.63203C7.04521 12.7918 7.38135 12.4448 7.38135 12.018V11.7513C7.38135 11.3535 7.08275 10.9775 6.60531 10.9775L4.85012 6.6044L9.44941 5.30404V14.6418H9.36093C8.97415 14.6418 8.65938 14.9668 8.65938 15.3663C8.65938 15.7604 8.65499 15.7869 8.6754 15.8844H7.98426C7.57108 15.8844 7.23495 16.2316 7.23495 16.6583V17.1864C6.82841 17.1944 6.49995 17.5377 6.49995 17.9595V18.2262C6.49995 18.6529 6.83605 19 7.24927 19H9.77957C9.93251 19 10.0564 18.872 10.0564 18.7141C10.0564 18.5563 9.93247 18.4283 9.77957 18.4283H7.24927C7.14137 18.4283 7.05359 18.3376 7.05359 18.2262V17.9595C7.05359 17.848 7.14137 17.7574 7.24927 17.7574C7.48131 17.7574 13.2274 17.7574 13.6018 17.7574C13.7097 17.7574 13.7975 17.848 13.7975 17.9595V18.2262C13.7975 18.3376 13.7097 18.4283 13.6018 18.4283H11.0714C10.9185 18.4283 10.7946 18.5563 10.7946 18.7141C10.7946 18.872 10.9186 19 11.0714 19H13.6018C14.015 19 14.3512 18.6529 14.3512 18.2262V17.9595C14.3512 17.5378 14.0228 17.1944 13.6163 17.1864V16.6583C13.6163 16.2316 13.2801 15.8844 12.8669 15.8844H12.1757C12.1958 15.7881 12.1917 15.7654 12.1917 15.3663C12.1917 14.9669 11.8769 14.6418 11.4901 14.6418H11.4016V10.6879C11.4016 10.53 11.2777 10.4021 11.1248 10.4021C10.9719 10.4021 10.848 10.53 10.848 10.6879V14.6419H10.003V5.55383C10.2696 5.63243 10.5762 5.63354 10.848 5.5538V9.35382C10.848 9.51175 10.9719 9.63968 11.1248 9.63968C11.2777 9.63968 11.4016 9.51171 11.4016 9.35382V5.30404L16.0446 6.61683L14.2945 10.9774C13.8185 10.9774 13.5186 11.3523 13.5186 11.7512V12.0179C13.5186 12.4446 13.8548 12.7917 14.268 12.7917H14.4521C15.4651 14.5686 17.9546 14.5664 18.9666 12.7917H19.1507C19.5638 12.7917 19.9 12.4446 19.9 12.0179V11.7512C19.8999 11.3246 19.5638 10.9775 19.1506 10.9775ZM3.9138 7.14451V10.9775H2.37534L3.9138 7.14451ZM2.64651 12.8373H5.73476C4.91406 13.7921 3.46637 13.7913 2.64651 12.8373ZM6.63074 11.5492C6.63074 11.5492 6.63074 11.5492 6.63199 11.5492C6.73989 11.5492 6.82767 11.6399 6.82767 11.7513V12.018C6.82767 12.1294 6.73989 12.2201 6.63199 12.2201H1.74935C1.64145 12.2201 1.55367 12.1294 1.55367 12.018V11.7513C1.55367 11.6399 1.64145 11.5492 1.74935 11.5492C1.8794 11.5492 6.51778 11.5492 6.63074 11.5492ZM6.0059 10.9775H4.46747V7.14447L6.0059 10.9775ZM4.37511 6.1382C4.27183 6.14834 4.18519 6.1207 4.09955 6.0649C3.79944 5.85364 3.88117 5.38081 4.22528 5.28345L8.86322 3.97223C8.85875 4.2595 8.92874 4.55355 9.07817 4.81623C4.22698 6.18787 4.43613 6.13229 4.37511 6.1382ZM10.003 2.00806H10.0031C10.0031 1.76742 10.1926 1.57175 10.4255 1.57175C10.6586 1.57175 10.848 1.76749 10.848 2.00806V2.44643C10.5752 2.36718 10.2739 2.36722 10.003 2.44639V2.00806ZM12.8669 16.4562C12.9749 16.4562 13.0627 16.5469 13.0627 16.6583V17.1856H7.78866V16.6583C7.78866 16.5468 7.87644 16.4562 7.98434 16.4562C8.22561 16.4562 12.6808 16.4562 12.8669 16.4562ZM11.4901 15.2136C11.5717 15.2136 11.6381 15.2821 11.6381 15.3663V15.7318C11.6381 15.816 11.5717 15.8845 11.4901 15.8845H9.36093C9.27939 15.8845 9.21305 15.816 9.21305 15.7318V15.3663C9.21305 15.2821 9.27939 15.2136 9.36093 15.2136C9.61497 15.2136 11.2412 15.2136 11.4901 15.2136ZM10.4909 5.03961C10.0998 5.06576 9.73634 4.85671 9.54731 4.51188C9.04413 3.59047 10.0671 2.5362 10.9637 3.11939C11.792 3.66122 11.4573 4.97732 10.4909 5.03961ZM16.9861 7.14451L18.5246 10.9775H16.9861V7.14451ZM11.773 4.8163C11.9222 4.55111 11.9925 4.26266 11.9879 3.97231L16.6258 5.28353C16.8505 5.34707 16.9833 5.58757 16.9219 5.8196C16.8646 6.03547 16.6548 6.16736 16.4811 6.13164C16.4569 6.12657 16.4325 6.12497 16.4087 6.12654C16.3798 6.11903 11.8216 4.82999 11.773 4.8163ZM16.4325 7.14428V10.9775H14.894L16.4325 7.14428ZM15.1652 12.8373H18.2534C17.4328 13.7921 15.9851 13.7913 15.1652 12.8373ZM19.3463 12.018C19.3463 12.1294 19.2585 12.2201 19.1506 12.2201H14.2679C14.16 12.2201 14.0722 12.1294 14.0722 12.018V11.7513C14.0722 11.6399 14.16 11.5492 14.2679 11.5492C14.398 11.5492 18.826 11.5492 18.9389 11.5492C18.9392 11.5492 18.9395 11.5492 18.9397 11.5492H19.1507C19.2585 11.5492 19.3463 11.6399 19.3463 11.7513V12.018H19.3463Z" fill="#07834E"/>
<path d="M19.1506 10.9775H19.1239L17.2653 6.34706C17.7204 5.78133 17.4508 4.92399 16.772 4.73206L11.8512 3.34082C11.7489 3.10593 11.594 2.90078 11.4018 2.74144V2.00806C11.4018 1.45221 10.9638 1 10.4256 1C9.88732 1 9.44945 1.45221 9.44945 2.00806V2.74144C9.25716 2.90078 9.1022 3.10593 8.99991 3.34086L4.07903 4.7321C3.37615 4.93085 3.12292 5.83016 3.61886 6.38613L1.77597 10.9775C1.3 10.9775 1 11.3523 1 11.7513V12.018C1 12.4447 1.33614 12.7918 1.74935 12.7918H1.93341C2.94666 14.5691 5.43617 14.5661 6.44787 12.7918H6.63203C7.04521 12.7918 7.38135 12.4448 7.38135 12.018V11.7513C7.38135 11.3535 7.08275 10.9775 6.60531 10.9775L4.85012 6.6044L9.44941 5.30404V14.6418H9.36093C8.97415 14.6418 8.65938 14.9668 8.65938 15.3663C8.65938 15.7604 8.65499 15.7869 8.6754 15.8844H7.98426C7.57108 15.8844 7.23495 16.2316 7.23495 16.6583V17.1864C6.82841 17.1944 6.49995 17.5377 6.49995 17.9595V18.2262C6.49995 18.6529 6.83605 19 7.24927 19H9.77957C9.93251 19 10.0564 18.872 10.0564 18.7141C10.0564 18.5563 9.93247 18.4283 9.77957 18.4283H7.24927C7.14137 18.4283 7.05359 18.3376 7.05359 18.2262V17.9595C7.05359 17.848 7.14137 17.7574 7.24927 17.7574C7.48131 17.7574 13.2274 17.7574 13.6018 17.7574C13.7097 17.7574 13.7975 17.848 13.7975 17.9595V18.2262C13.7975 18.3376 13.7097 18.4283 13.6018 18.4283H11.0714C10.9185 18.4283 10.7946 18.5563 10.7946 18.7141C10.7946 18.872 10.9186 19 11.0714 19H13.6018C14.015 19 14.3512 18.6529 14.3512 18.2262V17.9595C14.3512 17.5378 14.0228 17.1944 13.6163 17.1864V16.6583C13.6163 16.2316 13.2801 15.8844 12.8669 15.8844H12.1757C12.1958 15.7881 12.1917 15.7654 12.1917 15.3663C12.1917 14.9669 11.8769 14.6418 11.4901 14.6418H11.4016V10.6879C11.4016 10.53 11.2777 10.4021 11.1248 10.4021C10.9719 10.4021 10.848 10.53 10.848 10.6879V14.6419H10.003V5.55383C10.2696 5.63243 10.5762 5.63354 10.848 5.5538V9.35382C10.848 9.51175 10.9719 9.63968 11.1248 9.63968C11.2777 9.63968 11.4016 9.51171 11.4016 9.35382V5.30404L16.0446 6.61683L14.2945 10.9774C13.8185 10.9774 13.5186 11.3523 13.5186 11.7512V12.0179C13.5186 12.4446 13.8548 12.7917 14.268 12.7917H14.4521C15.4651 14.5686 17.9546 14.5664 18.9666 12.7917H19.1507C19.5638 12.7917 19.9 12.4446 19.9 12.0179V11.7512C19.8999 11.3246 19.5638 10.9775 19.1506 10.9775ZM3.9138 7.14451V10.9775H2.37534L3.9138 7.14451ZM2.64651 12.8373H5.73476C4.91406 13.7921 3.46637 13.7913 2.64651 12.8373ZM6.63074 11.5492C6.63074 11.5492 6.63074 11.5492 6.63199 11.5492C6.73989 11.5492 6.82767 11.6399 6.82767 11.7513V12.018C6.82767 12.1294 6.73989 12.2201 6.63199 12.2201H1.74935C1.64145 12.2201 1.55367 12.1294 1.55367 12.018V11.7513C1.55367 11.6399 1.64145 11.5492 1.74935 11.5492C1.8794 11.5492 6.51778 11.5492 6.63074 11.5492ZM6.0059 10.9775H4.46747V7.14447L6.0059 10.9775ZM4.37511 6.1382C4.27183 6.14834 4.18519 6.1207 4.09955 6.0649C3.79944 5.85364 3.88117 5.38081 4.22528 5.28345L8.86322 3.97223C8.85875 4.2595 8.92874 4.55355 9.07817 4.81623C4.22698 6.18787 4.43613 6.13229 4.37511 6.1382ZM10.003 2.00806H10.0031C10.0031 1.76742 10.1926 1.57175 10.4255 1.57175C10.6586 1.57175 10.848 1.76749 10.848 2.00806V2.44643C10.5752 2.36718 10.2739 2.36722 10.003 2.44639V2.00806ZM12.8669 16.4562C12.9749 16.4562 13.0627 16.5469 13.0627 16.6583V17.1856H7.78866V16.6583C7.78866 16.5468 7.87644 16.4562 7.98434 16.4562C8.22561 16.4562 12.6808 16.4562 12.8669 16.4562ZM11.4901 15.2136C11.5717 15.2136 11.6381 15.2821 11.6381 15.3663V15.7318C11.6381 15.816 11.5717 15.8845 11.4901 15.8845H9.36093C9.27939 15.8845 9.21305 15.816 9.21305 15.7318V15.3663C9.21305 15.2821 9.27939 15.2136 9.36093 15.2136C9.61497 15.2136 11.2412 15.2136 11.4901 15.2136ZM10.4909 5.03961C10.0998 5.06576 9.73634 4.85671 9.54731 4.51188C9.04413 3.59047 10.0671 2.5362 10.9637 3.11939C11.792 3.66122 11.4573 4.97732 10.4909 5.03961ZM16.9861 7.14451L18.5246 10.9775H16.9861V7.14451ZM11.773 4.8163C11.9222 4.55111 11.9925 4.26266 11.9879 3.97231L16.6258 5.28353C16.8505 5.34707 16.9833 5.58757 16.9219 5.8196C16.8646 6.03547 16.6548 6.16736 16.4811 6.13164C16.4569 6.12657 16.4325 6.12497 16.4087 6.12654C16.3798 6.11903 11.8216 4.82999 11.773 4.8163ZM16.4325 7.14428V10.9775H14.894L16.4325 7.14428ZM15.1652 12.8373H18.2534C17.4328 13.7921 15.9851 13.7913 15.1652 12.8373ZM19.3463 12.018C19.3463 12.1294 19.2585 12.2201 19.1506 12.2201H14.2679C14.16 12.2201 14.0722 12.1294 14.0722 12.018V11.7513C14.0722 11.6399 14.16 11.5492 14.2679 11.5492C14.398 11.5492 18.826 11.5492 18.9389 11.5492C18.9392 11.5492 18.9395 11.5492 18.9397 11.5492H19.1507C19.2585 11.5492 19.3463 11.6399 19.3463 11.7513V12.018H19.3463Z" stroke="#31C850" stroke-width="0.2" mask="url(#path-1-outside-1)"/>
</svg>
