<svg width="11" height="11" viewBox="0 0 11 11" fill="none" xmlns="http://www.w3.org/2000/svg">
<path d="M4.19152 9.60169C3.42128 10.3719 2.16539 10.3719 1.39515 9.60169C0.628002 8.83454 0.628002 7.57865 1.39824 6.80841L3.31611 4.89055C4.05232 4.15433 5.22469 4.11412 5.99803 4.78228C6.14651 4.90601 6.16507 5.15967 6.03824 5.30505C5.91451 5.45353 5.66395 5.47519 5.51547 5.34527C5.02981 4.92767 4.30597 4.94623 3.83888 5.41332L1.92101 7.33119C1.43227 7.81993 1.43227 8.59326 1.91792 9.07892C2.40667 9.56766 3.18 9.56766 3.66875 9.07892L5.5 7.24767C5.63611 7.10537 5.88976 7.10537 6.02587 7.24148C6.16507 7.38068 6.16507 7.63433 6.02277 7.77044L4.19152 9.60169ZM7.6808 6.11241C6.94768 6.84553 5.77531 6.88575 5.00197 6.21759C4.8504 6.09076 4.83184 5.84329 4.95867 5.69172C5.08549 5.54633 5.33605 5.52468 5.48144 5.65151C5.97019 6.0722 6.69403 6.05364 7.15803 5.58964L9.07899 3.66868C9.56773 3.17993 9.56773 2.4066 9.07899 1.91785C8.59333 1.4322 7.82 1.4322 7.33125 1.92095L5.5 3.7522C5.36389 3.89449 5.11024 3.89449 4.97413 3.75839C4.83493 3.61919 4.83493 3.36553 4.97723 3.22943L6.80848 1.39817C7.57872 0.627934 8.83461 0.627934 9.60176 1.39508C10.372 2.16532 10.372 3.42121 9.60176 4.19145L7.6808 6.11241Z" fill="black"/>
</svg>
