<svg width="16" height="16" viewBox="0 0 16 16" fill="none" xmlns="http://www.w3.org/2000/svg">
<path d="M12.6875 6.15649V4.6875C12.6875 2.10278 10.5847 0 8 0C5.41528 0 3.3125 2.10278 3.3125 4.6875V6.15649C2.6001 6.30164 2.0625 6.93298 2.0625 7.6875V9.46155C2.0625 9.63416 2.20239 9.77405 2.375 9.77405C2.54761 9.77405 2.6875 9.63416 2.6875 9.46155V7.6875C2.6875 7.17053 3.10803 6.75 3.625 6.75H12.375C12.892 6.75 13.3125 7.17053 13.3125 7.6875V14.4375C13.3125 14.8448 13.0513 15.1923 12.6875 15.3213V13.4375C12.6875 13.2649 12.5476 13.125 12.375 13.125C12.2024 13.125 12.0625 13.2649 12.0625 13.4375V15.375H3.625C3.10803 15.375 2.6875 14.9545 2.6875 14.4375V11.9688C2.6875 11.7961 2.54761 11.6562 2.375 11.6562C2.20239 11.6562 2.0625 11.7961 2.0625 11.9688V14.4375C2.0625 15.2991 2.76343 16 3.625 16H12.375C13.2366 16 13.9375 15.2991 13.9375 14.4375V7.6875C13.9375 6.93298 13.3999 6.30164 12.6875 6.15649ZM5.625 6.125V4.6875C5.625 3.37793 6.69043 2.3125 8 2.3125C9.30957 2.3125 10.375 3.37793 10.375 4.6875V6.125H5.625ZM11 6.125V4.6875C11 3.03333 9.65417 1.6875 8 1.6875C6.34583 1.6875 5 3.03333 5 4.6875V6.125H3.9375V4.6875C3.9375 2.44739 5.75989 0.625 8 0.625C10.2401 0.625 12.0625 2.44739 12.0625 4.6875V6.125H11Z" fill="#001C08"/>
<path d="M2.375 11.0153C2.45715 11.0153 2.53784 10.9819 2.59595 10.9237C2.65405 10.8656 2.6875 10.785 2.6875 10.7028C2.6875 10.6206 2.65405 10.5399 2.59595 10.4819C2.53784 10.4237 2.45715 10.3903 2.375 10.3903C2.29285 10.3903 2.21216 10.4237 2.15405 10.4819C2.09595 10.5399 2.0625 10.6206 2.0625 10.7028C2.0625 10.785 2.09595 10.8656 2.15405 10.9237C2.21216 10.9819 2.29285 11.0153 2.375 11.0153Z" fill="#001C08"/>
<path d="M7.99988 14.3125C8.51685 14.3125 8.93738 13.892 8.93738 13.375V11.7156C9.40686 11.4048 9.69141 10.8823 9.69141 10.3098C9.69141 9.37939 8.93433 8.62231 8.00391 8.62231C7.07336 8.62231 6.31641 9.37939 6.31641 10.3098C6.31641 10.8782 6.59778 11.3987 7.06238 11.7102V13.375C7.06238 13.892 7.48291 14.3125 7.99988 14.3125ZM6.94141 10.3098C6.94141 9.72388 7.41797 9.24731 8.00391 9.24731C8.58972 9.24731 9.06641 9.72388 9.06641 10.3098C9.06641 10.7122 8.84302 11.0753 8.48352 11.2578C8.37854 11.311 8.31238 11.4187 8.31238 11.5365V13.375C8.31238 13.5474 8.17224 13.6875 7.99988 13.6875C7.82751 13.6875 7.68738 13.5474 7.68738 13.375V11.5323C7.68738 11.4154 7.62207 11.3082 7.51807 11.2546C7.16235 11.0713 6.94141 10.7092 6.94141 10.3098Z" fill="#001C08"/>
<path d="M12.375 12.4688C12.4575 12.4688 12.5378 12.4353 12.5959 12.3772C12.6541 12.3191 12.6875 12.2388 12.6875 12.1562C12.6875 12.0737 12.6541 11.9934 12.5959 11.9353C12.5378 11.8772 12.4575 11.8438 12.375 11.8438C12.2928 11.8438 12.2122 11.8772 12.1541 11.9353C12.0959 11.9934 12.0625 12.0741 12.0625 12.1562C12.0625 12.2384 12.0959 12.3191 12.1541 12.3772C12.2122 12.4353 12.2928 12.4688 12.375 12.4688Z" fill="#001C08"/>
</svg>
