<svg width="16" height="16" viewBox="0 0 16 16" fill="none" xmlns="http://www.w3.org/2000/svg">
<path d="M12.5703 1.43469C12.5131 1.39035 12.4475 1.35812 12.3774 1.33995C12.3074 1.32179 12.2343 1.31807 12.1628 1.32902C12.0913 1.33998 12.0227 1.36538 11.9613 1.40367C11.8999 1.44197 11.8469 1.49237 11.8056 1.55179C11.7643 1.61121 11.7355 1.67842 11.721 1.74933C11.7065 1.82023 11.7066 1.89334 11.7213 1.96421C11.7359 2.03508 11.7649 2.10222 11.8063 2.16156C11.8477 2.22089 11.9008 2.27117 11.9623 2.30933C13.1734 3.15289 14.0837 4.36094 14.5608 5.75767C15.0378 7.15439 15.0567 8.66691 14.6146 10.0751C14.1725 11.4833 13.2926 12.7136 12.1029 13.5871C10.9131 14.4606 9.4757 14.9316 7.99976 14.9316C6.52382 14.9316 5.08639 14.4606 3.89666 13.5871C2.70694 12.7136 1.82701 11.4833 1.38493 10.0751C0.94286 8.66691 0.96171 7.15439 1.43874 5.75767C1.91577 4.36094 2.82609 3.15289 4.03721 2.30933C4.14521 2.22561 4.21695 2.10363 4.23764 1.96856C4.25832 1.83349 4.22637 1.69563 4.14838 1.58343C4.07038 1.47122 3.9523 1.39324 3.81848 1.36556C3.68467 1.33789 3.54533 1.36263 3.42923 1.43469C2.0314 2.40778 0.980616 3.80159 0.429838 5.41326C-0.12094 7.02493 -0.142964 8.77032 0.36697 10.3954C0.876905 12.0204 1.89218 13.4403 3.26501 14.4484C4.63785 15.4564 6.29658 16 7.99976 16C9.70294 16 11.3617 15.4564 12.7345 14.4484C14.1073 13.4403 15.1226 12.0204 15.6326 10.3954C16.1425 8.77032 16.1205 7.02493 15.5697 5.41326C15.0189 3.80159 13.9681 2.40778 12.5703 1.43469Z" fill="#DB2020"/>
<path d="M8.53294 7.99976V0.533317C8.53294 0.391873 8.47676 0.256221 8.37674 0.156205C8.27672 0.0561886 8.14107 0 7.99963 0C7.85818 0 7.72253 0.0561886 7.62251 0.156205C7.5225 0.256221 7.46631 0.391873 7.46631 0.533317V7.99976C7.46631 8.1412 7.5225 8.27686 7.62251 8.37687C7.72253 8.47689 7.85818 8.53308 7.99963 8.53308C8.14107 8.53308 8.27672 8.47689 8.37674 8.37687C8.47676 8.27686 8.53294 8.1412 8.53294 7.99976Z" fill="#DB2020"/>
</svg>
