<svg width="16" height="16" viewBox="0 0 16 16" fill="none" xmlns="http://www.w3.org/2000/svg">
<path d="M8 1.875C6.19072 1.875 4.71875 3.34697 4.71875 5.15625C4.71875 6.27947 5.28519 7.31297 6.23397 7.92084C7.20281 8.54156 8.39209 8.60753 9.49728 8.09906C9.73244 7.99088 9.83541 7.7125 9.72719 7.47731C9.619 7.24216 9.34066 7.13919 9.10544 7.24738C8.29731 7.61919 7.435 7.57691 6.73972 7.13147C6.06128 6.69681 5.65625 5.95841 5.65625 5.15625C5.65625 3.86391 6.70766 2.8125 8 2.8125C9.29234 2.8125 10.3438 3.86391 10.3438 5.15625C10.3438 5.41472 10.1335 5.625 9.875 5.625C9.63881 5.625 9.41819 5.44587 9.40631 5.16337C9.40628 5.161 9.40625 5.15862 9.40625 5.15625C9.40625 4.38084 8.77541 3.75 8 3.75C7.22459 3.75 6.59375 4.38084 6.59375 5.15625C6.59375 5.93166 7.22459 6.5625 8 6.5625C8.35987 6.5625 8.68847 6.42647 8.93747 6.20331C9.18644 6.4265 9.51509 6.5625 9.875 6.5625C10.6504 6.5625 11.2812 5.93166 11.2812 5.15625C11.2812 3.34697 9.80928 1.875 8 1.875ZM8.46216 5.23144C8.42597 5.45422 8.23281 5.625 8 5.625C7.74153 5.625 7.53125 5.41472 7.53125 5.15625C7.53125 4.89778 7.74153 4.6875 8 4.6875C8.24034 4.6875 8.43875 4.86938 8.46547 5.10266C8.45847 5.14525 8.45731 5.18859 8.46216 5.23144Z" fill="#001807"/>
<path d="M15.0312 6.1555C15.0311 6.03428 14.9823 5.91313 14.8939 5.82478L13.1562 4.08709V0.46875C13.1562 0.209875 12.9464 0 12.6875 0H3.3125C3.05363 0 2.84375 0.209875 2.84375 0.46875V4.08709L1.10606 5.82478C1.10444 5.82641 1.10306 5.82822 1.10147 5.82987C1.01363 5.92037 0.968969 6.03953 0.968781 6.1555C0.968781 6.15581 0.96875 6.15609 0.96875 6.15641V14.5938C0.96875 15.3702 1.6005 16 2.375 16H13.625C14.4012 16 15.0312 15.3685 15.0312 14.5938V6.15641C15.0312 6.15609 15.0312 6.15581 15.0312 6.1555ZM13.1562 5.41291L13.8996 6.15625L13.1562 6.89959V5.41291ZM3.78125 4.28141C3.78125 4.28131 3.78125 4.28119 3.78125 4.28109V0.9375H12.2188V4.28109C12.2188 4.28119 12.2188 4.28131 12.2188 4.28141V7.83709L9.68084 10.375H6.31916L3.78125 7.83709V4.28141ZM2.84375 5.41291V6.89959L2.10041 6.15625L2.84375 5.41291ZM1.90625 14.3996V7.28791L5.46209 10.8438L1.90625 14.3996ZM2.56919 15.0625L6.31916 11.3125H9.68084L13.4308 15.0625H2.56919ZM14.0938 14.3996L10.5379 10.8438L14.0938 7.28791V14.3996Z" fill="#001807"/>
</svg>
