<svg width="110" height="110" viewBox="0 0 110 110" fill="none" xmlns="http://www.w3.org/2000/svg">
<g clip-path="url(#clip0)">
<path d="M20.6476 26.1444C20.7853 26.1226 20.9238 26.1142 21.0631 26.1184H30.6319C28.6399 26.12 22.5926 26.2225 20.6476 26.1444ZM34.1777 39.1524C30.6017 39.4067 27.0072 39.196 23.4858 38.527C19.7259 37.5306 14.4903 34.177 16.1692 29.5861C16.855 27.7049 18.5431 26.371 20.5318 26.1394C18.8848 26.1058 17.2462 25.8892 15.647 25.4938C11.904 24.5167 6.66839 21.1313 8.3288 16.5538C9.07423 14.4854 11.0301 13.102 13.2286 13.0877H30.6277L30.6109 13.0306H18.7395C17.2655 13.0306 15.8082 13.086 14.3518 13.0684C12.1575 13.1339 9.96404 12.9106 7.82766 12.4044C4.08459 11.4298 -1.16779 8.05696 0.508572 3.46605C1.25651 1.39767 3.21409 0.0142705 5.41259 0L33.2459 0.0377748C46.1926 0.0444903 56.6856 10.5383 56.6915 23.485V23.8175L34.1777 39.1524Z" fill="#F9EAB0"/>
<path d="M25.8395 28.0699C24.8347 28.0699 23.9692 28.0699 23.4076 28.0397C22.4507 27.9985 21.6742 27.2489 21.5986 26.2936C21.5239 25.3383 22.1728 24.4762 23.1121 24.2857C23.3724 24.2395 23.6368 24.2177 23.9012 24.221H33.4675C34.5151 24.221 35.3646 25.0706 35.3646 26.1182C35.3646 27.1658 34.5151 28.0153 33.4675 28.0153C32.8572 28.0153 31.8574 28.0262 30.7116 28.038C29.1368 28.0531 27.3328 28.0699 25.8395 28.0699Z" fill="#F3D55B"/>
<path d="M18.2457 14.9866C16.9177 14.9866 15.7685 14.9866 15.0206 14.9564C14.0385 14.927 13.241 14.1514 13.1839 13.1692C13.1268 12.1879 13.8294 11.3258 14.8032 11.1831C15.0794 11.1487 15.3589 11.1336 15.6376 11.1378H28.4668C29.5144 11.1378 30.3639 11.9864 30.3639 13.0349C30.3639 14.0825 29.5144 14.9312 28.4668 14.9312C27.6458 14.9312 26.3044 14.9413 24.7657 14.9522C22.662 14.9673 20.2436 14.9866 18.2457 14.9866Z" fill="#F3D55B"/>
<path d="M84.0687 79.5667V89.1338C84.0729 89.2732 84.0645 89.4133 84.0418 89.551C83.9646 87.5951 84.0687 81.5478 84.0687 79.5667ZM86.3713 53.4945H86.7037C99.6504 53.5021 110.143 63.9951 110.151 76.9418L110.187 104.777C110.174 106.975 108.789 108.933 106.721 109.678C102.132 111.357 98.7531 106.102 97.7802 102.362C97.2748 100.225 97.0524 98.031 97.1178 95.8359C97.0994 94.3786 97.1539 92.9239 97.1539 91.4481V79.5785L97.0994 79.5591V96.9608C97.0876 99.1601 95.7034 101.119 93.6333 101.863C89.0617 103.523 85.6662 98.2871 84.6924 94.5457C84.2979 92.9466 84.0813 91.308 84.0477 89.661C83.8177 91.6555 82.4805 93.3486 80.5934 94.0336C76.0042 95.7108 72.6489 90.4752 71.6525 86.7154C70.9843 83.1931 70.7736 79.5994 71.0263 76.0234L86.3713 53.4945Z" fill="#F9EAB0"/>
<path d="M84.0467 89.5508C83.9947 89.5508 83.9452 89.5508 83.899 89.5508C82.9395 89.4769 82.1882 88.6962 82.1496 87.7351C82.0908 86.3391 82.1252 83.0594 82.1496 80.4227C82.163 79.2844 82.1706 78.2846 82.1706 77.6752C82.1706 76.6276 83.0201 75.7781 84.0677 75.7781C85.1153 75.7781 85.964 76.6276 85.964 77.6752V87.2423C85.969 87.5059 85.9481 87.7695 85.9019 88.0297C85.7231 88.9128 84.9483 89.5491 84.0467 89.5508Z" fill="#F3D55B"/>
<path d="M97.1656 96.6893C97.1262 96.6893 97.0875 96.6893 97.0481 96.6893C96.0685 96.6297 95.2962 95.8339 95.2668 94.8526C95.2114 93.0562 95.2441 88.7826 95.2668 85.3678C95.2802 83.8677 95.2878 82.5582 95.2878 81.7632C95.2878 80.7156 96.1365 79.8661 97.1849 79.8661C98.2326 79.8661 99.0812 80.7156 99.0812 81.7632V94.2633C99.0863 94.5404 99.0712 94.8182 99.0342 95.0935C98.8865 96.0119 98.0949 96.6868 97.1656 96.6893Z" fill="#F3D55B"/>
<path d="M56.103 47.1957L30.7208 44.3694C30.6662 43.3016 31.0658 42.2607 31.8213 41.5052L50.4115 22.9141C51.1796 22.1284 52.2575 21.7254 53.3521 21.8136L56.103 47.1957Z" fill="#F29C1F"/>
<path d="M65.8345 79.4456C64.8851 79.4246 63.9811 79.0376 63.3112 78.3644L31.8212 46.8736C31.1471 46.2104 30.7534 45.3139 30.7207 44.3695L56.1029 47.1959L56.5579 51.3318C56.6871 52.5415 57.6433 53.4976 58.8537 53.6269L63.0081 54.1011L65.8345 79.4456Z" fill="#E57E25"/>
<path d="M88.391 56.9849C88.4271 58.0267 88.0283 59.0365 87.2905 59.7735L68.6809 78.3647C67.9346 79.1218 66.8962 79.5164 65.8352 79.4459L63.0088 54.1014L88.391 56.9849Z" fill="#F29C1F"/>
<path d="M88.3908 56.9847L63.0086 54.1013L58.8542 53.627C57.6438 53.4977 56.6876 52.5416 56.5584 51.3319L56.1034 47.196L53.3525 21.8138C54.2675 21.8776 55.1296 22.268 55.781 22.9143L87.2903 54.4051C87.9854 55.0842 88.3816 56.0127 88.3908 56.9847Z" fill="#F0C419"/>
<path d="M9.64463 68.2342C8.87738 68.2342 8.18568 67.7716 7.89272 67.0631C7.59891 66.3546 7.76092 65.5387 8.3032 64.9956L21.5823 51.7165C22.3269 50.9979 23.5105 51.008 24.2417 51.74C24.9737 52.472 24.9837 53.6548 24.2652 54.3993L10.9861 67.6784C10.6301 68.0344 10.1475 68.2342 9.64463 68.2342Z" fill="#67B9CC"/>
<path d="M9.64463 87.2045C8.87738 87.2037 8.18568 86.742 7.89272 86.0326C7.59891 85.3241 7.76092 84.5082 8.3032 83.9659L21.5823 70.6868C22.3269 69.9683 23.5105 69.9783 24.2417 70.7103C24.9737 71.4415 24.9837 72.6251 24.2652 73.3688L10.9861 86.6479C10.6301 87.0039 10.1475 87.2037 9.64463 87.2045Z" fill="#67B9CC"/>
<path d="M21.0265 94.7922C20.2592 94.7922 19.5675 94.3297 19.2746 93.6212C18.9807 92.9127 19.1428 92.0968 19.685 91.5537L40.5527 70.6868C41.2973 69.9683 42.4801 69.9783 43.2121 70.7103C43.944 71.4415 43.9541 72.6251 43.2347 73.3688L22.3679 94.2365C22.012 94.5924 21.5293 94.7922 21.0265 94.7922Z" fill="#67B9CC"/>
<path d="M47.585 106.174C46.8178 106.174 46.1269 105.712 45.8331 105.003C45.5393 104.295 45.7013 103.479 46.2444 102.937L59.5236 89.6575C60.2673 88.9381 61.4509 88.9482 62.1821 89.6802C62.9141 90.4122 62.9241 91.595 62.2056 92.3395L48.9265 105.619C48.5705 105.975 48.0887 106.174 47.585 106.174Z" fill="#67B9CC"/>
<path d="M28.6146 106.174C27.8474 106.174 27.1557 105.712 26.8619 105.003C26.5689 104.295 26.7309 103.479 27.2732 102.937L40.5523 89.6575C41.2969 88.9381 42.4797 88.9482 43.2116 89.6802C43.9436 90.4122 43.9537 91.595 43.2343 92.3395L29.9552 105.619C29.6001 105.975 29.1174 106.174 28.6146 106.174Z" fill="#67B9CC"/>
</g>
<defs>
<clipPath id="clip0">
<rect width="110" height="110" fill="white"/>
</clipPath>
</defs>
</svg>
