<svg width="20" height="14" viewBox="0 0 20 14" fill="none" xmlns="http://www.w3.org/2000/svg">
<path d="M0 7C0 6.44772 0.298477 6 0.666667 6H19.3333C19.7015 6 20 6.44772 20 7C20 7.55228 19.7015 8 19.3333 8H0.666667C0.298477 8 0 7.55228 0 7Z" fill="white"/>
<path d="M11.3333 13C11.3333 12.4477 11.6318 12 12 12H19.3333C19.7015 12 20 12.4477 20 13C20 13.5523 19.7015 14 19.3333 14H12C11.6318 14 11.3333 13.5523 11.3333 13Z" fill="white"/>
<path d="M0 1C0 0.447715 0.298477 0 0.666667 0H9.33333C9.70152 0 10 0.447715 10 1C10 1.55228 9.70152 2 9.33333 2H0.666667C0.298477 2 0 1.55228 0 1Z" fill="white"/>
</svg>
