<svg width="179" height="87" viewBox="0 0 179 87" fill="none" xmlns="http://www.w3.org/2000/svg">
<path fill-rule="evenodd" clip-rule="evenodd" d="M38.1204 73.2965H113.532C113.959 73.2965 114.375 73.2505 114.775 73.1632C115.176 73.2505 115.592 73.2965 116.018 73.2965H159.111C162.315 73.2965 164.912 70.7046 164.912 67.5074C164.912 64.3101 162.315 61.7182 159.111 61.7182H154.139C150.935 61.7182 148.338 59.1264 148.338 55.9291C148.338 52.7319 150.935 50.14 154.139 50.14H169.884C173.088 50.14 175.685 47.5481 175.685 44.3509C175.685 41.1536 173.088 38.5618 169.884 38.5618H151.653C154.856 38.5618 157.454 35.9699 157.454 32.7726C157.454 29.5754 154.856 26.9835 151.653 26.9835H98.6157C101.819 26.9835 104.417 24.3916 104.417 21.1944C104.417 17.9972 101.819 15.4053 98.6157 15.4053H51.3796C48.1758 15.4053 45.5787 17.9972 45.5787 21.1944C45.5787 24.3916 48.1758 26.9835 51.3796 26.9835H18.2315C15.0277 26.9835 12.4306 29.5754 12.4306 32.7726C12.4306 35.9699 15.0277 38.5618 18.2315 38.5618H38.9491C42.1528 38.5618 44.75 41.1536 44.75 44.3509C44.75 47.5481 42.1528 50.14 38.9491 50.14H5.80092C2.59716 50.14 0 52.7319 0 55.9291C0 59.1264 2.59716 61.7182 5.80092 61.7182H38.1204C34.9166 61.7182 32.3194 64.3101 32.3194 67.5074C32.3194 70.7046 34.9166 73.2965 38.1204 73.2965ZM179 67.5076C179 70.7048 176.403 73.2967 173.199 73.2967C169.995 73.2967 167.398 70.7048 167.398 67.5076C167.398 64.3104 169.995 61.7185 173.199 61.7185C176.403 61.7185 179 64.3104 179 67.5076Z" fill="#EEEEEE"/>
<path fill-rule="evenodd" clip-rule="evenodd" d="M125.612 66.7422C123.595 68.3627 121.394 69.831 119.038 71.1244L119.174 82.7716C119.185 83.685 118.452 84.4342 117.536 84.4449C117.164 84.4492 116.801 84.3284 116.506 84.1019L106.013 76.0447C102.079 76.9482 97.9302 77.4315 93.643 77.4315C68.4706 77.4315 48.0643 60.7695 48.0643 40.2158C48.0643 19.6621 68.4706 3 93.643 3C118.815 3 139.222 19.6621 139.222 40.2158C139.222 45.9046 137.658 51.2953 134.864 56.1171C134.348 57.0064 133.791 57.8764 133.194 58.7252M131.096 61.4321C130.338 62.3217 129.535 63.183 128.688 64.0137Z" fill="white"/>
<path d="M127.063 68.5477C128.06 67.7464 128.218 66.2885 127.417 65.2913C126.616 64.2942 125.158 64.1354 124.161 64.9367L127.063 68.5477ZM119.038 71.1244L117.923 69.0939L116.706 69.7624L116.722 71.1515L119.038 71.1244ZM119.174 82.7716L116.858 82.7987L116.858 82.7987L119.174 82.7716ZM117.536 84.4449L117.509 82.1288L117.536 84.4449ZM116.506 84.1019L117.917 82.2647L117.917 82.2647L116.506 84.1019ZM106.013 76.0447L107.423 74.2076L106.558 73.543L105.494 73.7873L106.013 76.0447ZM134.864 56.1171L136.867 57.2787L136.867 57.2787L134.864 56.1171ZM131.299 57.3926C130.563 58.4388 130.815 59.8836 131.861 60.6197C132.907 61.3557 134.352 61.1042 135.088 60.0579L131.299 57.3926ZM132.859 62.9335C133.689 61.9595 133.571 60.4976 132.597 59.6684C131.623 58.8392 130.161 58.9566 129.332 59.9307L132.859 62.9335ZM127.066 62.36C126.153 63.2556 126.138 64.7221 127.034 65.6354C127.93 66.5488 129.396 66.5631 130.309 65.6674L127.066 62.36ZM124.161 64.9367C122.253 66.4699 120.165 67.8635 117.923 69.0939L120.152 73.1549C122.624 71.7985 124.937 70.2554 127.063 68.5477L124.161 64.9367ZM116.722 71.1515L116.858 82.7987L121.49 82.7445L121.354 71.0973L116.722 71.1515ZM116.858 82.7987C116.854 82.4286 117.15 82.133 117.509 82.1288L117.563 86.7609C119.753 86.7354 121.516 84.9415 121.49 82.7445L116.858 82.7987ZM117.509 82.1288C117.656 82.1271 117.8 82.1747 117.917 82.2647L115.096 85.939C115.803 86.4821 116.672 86.7713 117.563 86.7609L117.509 82.1288ZM117.917 82.2647L107.423 74.2076L104.602 77.8818L115.096 85.939L117.917 82.2647ZM105.494 73.7873C101.731 74.6516 97.7562 75.1153 93.643 75.1153V79.7477C98.1042 79.7477 102.427 79.2448 106.531 78.3021L105.494 73.7873ZM93.643 75.1153C69.2888 75.1153 50.3805 59.0735 50.3805 40.2158H45.7481C45.7481 62.4655 67.6524 79.7477 93.643 79.7477V75.1153ZM50.3805 40.2158C50.3805 21.3581 69.2888 5.3162 93.643 5.3162V0.683798C67.6524 0.683798 45.7481 17.9661 45.7481 40.2158H50.3805ZM93.643 5.3162C117.997 5.3162 136.906 21.3581 136.906 40.2158H141.538C141.538 17.9661 119.634 0.683798 93.643 0.683798V5.3162ZM136.906 40.2158C136.906 45.4696 135.464 50.4625 132.86 54.9556L136.867 57.2787C139.853 52.1281 141.538 46.3396 141.538 40.2158H136.906ZM132.86 54.9556C132.379 55.7852 131.858 56.598 131.299 57.3926L135.088 60.0579C135.723 59.1547 136.317 58.2277 136.867 57.2787L132.86 54.9556ZM129.332 59.9307C128.621 60.7663 127.865 61.5769 127.066 62.36L130.309 65.6674C131.205 64.7891 132.056 63.877 132.859 62.9335L129.332 59.9307Z" fill="#BBBBBB"/>
<path fill-rule="evenodd" clip-rule="evenodd" d="M77.0695 45.1781C79.8156 45.1781 82.0417 42.9564 82.0417 40.2159C82.0417 37.4755 79.8156 35.2538 77.0695 35.2538C74.3234 35.2538 72.0973 37.4755 72.0973 40.2159C72.0973 42.9564 74.3234 45.1781 77.0695 45.1781ZM92.8148 45.1782C95.5609 45.1782 97.787 42.9565 97.787 40.2161C97.787 37.4756 95.5609 35.254 92.8148 35.254C90.0687 35.254 87.8426 37.4756 87.8426 40.2161C87.8426 42.9565 90.0687 45.1782 92.8148 45.1782ZM113.532 40.2161C113.532 42.9565 111.306 45.1782 108.56 45.1782C105.814 45.1782 103.588 42.9565 103.588 40.2161C103.588 37.4756 105.814 35.254 108.56 35.254C111.306 35.254 113.532 37.4756 113.532 40.2161Z" fill="#EEEEEE"/>
<path d="M79.7255 40.2159C79.7255 41.6728 78.5408 42.8618 77.0695 42.8618V47.4943C81.0903 47.4943 84.3579 44.2401 84.3579 40.2159H79.7255ZM77.0695 37.57C78.5408 37.57 79.7255 38.7591 79.7255 40.2159H84.3579C84.3579 36.1918 81.0903 32.9376 77.0695 32.9376V37.57ZM74.4135 40.2159C74.4135 38.7591 75.5982 37.57 77.0695 37.57V32.9376C73.0487 32.9376 69.7811 36.1918 69.7811 40.2159H74.4135ZM77.0695 42.8618C75.5982 42.8618 74.4135 41.6728 74.4135 40.2159H69.7811C69.7811 44.2401 73.0487 47.4943 77.0695 47.4943V42.8618ZM95.4708 40.2161C95.4708 41.6729 94.2861 42.862 92.8148 42.862V47.4944C96.8356 47.4944 100.103 44.2402 100.103 40.2161H95.4708ZM92.8148 37.5702C94.2861 37.5702 95.4708 38.7592 95.4708 40.2161H100.103C100.103 36.1919 96.8356 32.9377 92.8148 32.9377V37.5702ZM90.1588 40.2161C90.1588 38.7592 91.3435 37.5702 92.8148 37.5702V32.9377C88.794 32.9377 85.5264 36.1919 85.5264 40.2161H90.1588ZM92.8148 42.862C91.3435 42.862 90.1588 41.6729 90.1588 40.2161H85.5264C85.5264 44.2402 88.794 47.4944 92.8148 47.4944V42.862ZM108.56 47.4944C112.581 47.4944 115.848 44.2402 115.848 40.2161H111.216C111.216 41.6729 110.031 42.862 108.56 42.862V47.4944ZM101.271 40.2161C101.271 44.2402 104.539 47.4944 108.56 47.4944V42.862C107.088 42.862 105.904 41.6729 105.904 40.2161H101.271ZM108.56 32.9377C104.539 32.9377 101.271 36.1919 101.271 40.2161H105.904C105.904 38.7592 107.088 37.5702 108.56 37.5702V32.9377ZM115.848 40.2161C115.848 36.1919 112.581 32.9377 108.56 32.9377V37.5702C110.031 37.5702 111.216 38.7592 111.216 40.2161H115.848Z" fill="#BBBBBB"/>
<path d="M60.2154 28.0677C59.4629 29.3346 58.8108 30.6494 58.2676 32.0051" stroke="#EEEEEE" stroke-width="4.8" stroke-linecap="round"/>
<path d="M75.4297 14.6388C69.9995 17.2251 65.4149 20.8837 62.1019 25.2635" stroke="#EEEEEE" stroke-width="4.8" stroke-linecap="round"/>
</svg>
