<svg width="15" height="18" viewBox="0 0 15 18" fill="none" xmlns="http://www.w3.org/2000/svg">
<path d="M13.0419 13.3128L13.0751 13.2755L13.0419 13.3128C13.2043 13.4571 13.2971 13.6621 13.2971 13.8751C13.2971 14.2941 12.9459 14.6375 12.5112 14.6375H2.47902C2.04436 14.6375 1.69308 14.2941 1.69308 13.8751C1.69308 13.6622 1.7859 13.4572 1.94832 13.3128C2.43977 12.8762 2.72201 12.2561 2.72201 11.6112V7.99998C2.72201 5.44424 4.86192 3.36247 7.49513 3.36247C8.20021 3.36247 8.89492 3.51422 9.52714 3.80314C9.31402 4.1543 9.19119 4.56338 9.19119 4.99998C9.19119 6.30405 10.2823 7.36248 11.6206 7.36248C12.9589 7.36248 14.05 6.30405 14.05 4.99998C14.05 3.6959 12.9589 2.63747 11.6206 2.63747C11.0055 2.63747 10.4428 2.86099 10.0143 3.229C9.56093 3.00265 9.07723 2.83913 8.57808 2.74226C8.67773 2.56873 8.73483 2.36889 8.73483 2.15622C8.73483 1.48974 8.1774 0.95 7.49513 0.95C6.81286 0.95 6.25543 1.48974 6.25543 2.15622C6.25543 2.36865 6.31239 2.56826 6.41182 2.74167C3.88814 3.23216 1.97893 5.40236 1.97893 7.99998V11.6112C1.97893 12.0518 1.78571 12.4768 1.44801 12.7768C1.13171 13.0578 0.95 13.458 0.95 13.8751C0.95 14.6966 1.63724 15.3625 2.47902 15.3625H5.42046C5.59716 16.3215 6.46093 17.05 7.49513 17.05C8.52932 17.05 9.3931 16.3215 9.5698 15.3625H12.5112C13.353 15.3625 14.0403 14.6966 14.0403 13.8751C14.0403 13.458 13.8585 13.0578 13.5422 12.7768C13.2045 12.4768 13.0113 12.0518 13.0113 11.6112V8.49998C13.0113 8.29848 12.8436 8.13748 12.6398 8.13748C12.4359 8.13748 12.2682 8.29848 12.2682 8.49998V11.6112C12.2682 12.2561 12.5505 12.8762 13.0419 13.3128ZM11.6206 3.36247C12.5517 3.36247 13.3069 4.09845 13.3069 4.99998C13.3069 5.9015 12.5517 6.63748 11.6206 6.63748C10.6894 6.63748 9.93424 5.9015 9.93424 4.99998C9.93424 4.09845 10.6894 3.36247 11.6206 3.36247ZM7.49513 1.67497C7.77028 1.67497 7.99175 1.89223 7.99175 2.15619C7.99175 2.42018 7.77028 2.63744 7.49513 2.63744C7.21998 2.63744 6.99851 2.42018 6.99851 2.15619C6.99851 1.89223 7.21997 1.67497 7.49513 1.67497ZM7.49513 16.325C6.87137 16.325 6.34537 15.9167 6.18271 15.3625H8.80754C8.64489 15.9167 8.11889 16.325 7.49513 16.325Z" fill="#001807" stroke="#001807" stroke-width="0.1"/>
<path d="M3.89381 7.63066C3.68996 7.63066 3.52227 7.79166 3.52227 7.99316V7.99966C3.52227 8.20117 3.68996 8.36216 3.89381 8.36216C4.09766 8.36216 4.26535 8.20117 4.26535 7.99966V7.99316C4.26535 7.79166 4.09766 7.63066 3.89381 7.63066Z" fill="#001807" stroke="#001807" stroke-width="0.1"/>
<path d="M4.03383 6.96729L4.03384 6.9673C4.081 6.98675 4.13009 6.99601 4.1784 6.99601C4.32208 6.99601 4.45988 6.91397 4.52035 6.77556L4.52035 6.77556C5.02771 5.61399 6.19492 4.8625 7.49496 4.8625C7.69881 4.8625 7.8665 4.70151 7.8665 4.5C7.8665 4.29849 7.69881 4.1375 7.49496 4.1375C5.89788 4.1375 4.46155 5.06083 3.83676 6.49131C3.75577 6.67671 3.84539 6.88954 4.03383 6.96729Z" fill="#001807" stroke="#001807" stroke-width="0.1"/>
<path d="M11.7525 3.94074L11.7524 3.94073C11.6143 3.88522 11.4549 3.91565 11.3485 4.01901L11.3485 4.01902L10.9788 4.37839C10.833 4.52006 10.833 4.75037 10.9788 4.89207L10.9788 4.89208C11.0509 4.96215 11.1451 4.9973 11.2392 4.99774V5.51022C11.2392 5.71173 11.4069 5.87272 11.6107 5.87272C11.8146 5.87272 11.9823 5.71173 11.9823 5.51022V4.27584C11.9823 4.12836 11.8909 3.99649 11.7525 3.94074Z" fill="#001807" stroke="#001807" stroke-width="0.1"/>
</svg>
