<svg width="17" height="20" viewBox="0 0 17 20" fill="none" xmlns="http://www.w3.org/2000/svg">
<mask id="path-1-outside-1" maskUnits="userSpaceOnUse" x="3.63281" y="2.22192" width="10" height="9" fill="black">
<rect fill="white" x="3.63281" y="2.22192" width="10" height="9"/>
<path d="M12.9604 7.32862H12.9068L12.1646 5.55742V5.54856C12.2017 5.54821 12.239 5.54775 12.2761 5.5461C12.4216 5.53966 12.5343 5.41655 12.5279 5.27107C12.5215 5.12563 12.399 5.01376 12.2529 5.01925C12.2235 5.02058 12.194 5.0209 12.1646 5.02122V4.91997C12.1646 4.77431 12.0466 4.65629 11.9009 4.65629C11.7553 4.65629 11.6373 4.77431 11.6373 4.91997V4.97302C10.5679 4.75986 10.5661 4.16485 9.78406 4.16485H9.73741C9.65437 3.92487 9.4634 3.73499 9.22269 3.6534V3.48559C9.22269 3.33994 9.10467 3.22192 8.95902 3.22192C8.81337 3.22192 8.69535 3.33994 8.69535 3.48559V3.6534C8.45463 3.73499 8.26359 3.92498 8.18055 4.16506C8.15784 4.16878 7.74662 4.12586 7.37745 4.43973C7.1426 4.63942 6.78419 4.8679 6.30005 4.96904V4.92018C6.30005 4.77452 6.18203 4.65651 6.03638 4.65651C5.89073 4.65651 5.77271 4.77452 5.77271 4.92018V5.02234C5.63018 5.02589 5.51568 5.14229 5.51568 5.28566C5.51568 5.42903 5.63015 5.54543 5.77271 5.54898V5.55756L5.0306 7.32862C5.00954 7.33203 4.85337 7.30457 4.72892 7.4344C4.60232 7.56638 4.6263 7.7243 4.65843 7.9332C4.70572 8.21227 4.88322 8.46473 5.16939 8.60285C5.30081 8.66554 5.40195 8.81871 5.65237 8.81871H6.42039C6.60313 8.81871 6.73265 8.7202 6.75673 8.70048C6.82926 8.64103 6.843 8.6339 6.90917 8.60001C7.28168 8.42205 7.42122 8.09323 7.43883 7.68612C7.44368 7.47768 7.28122 7.32865 7.09585 7.32865H7.04216L6.30005 5.55759V5.50472C6.98468 5.38578 7.46773 5.05518 7.71902 4.8415C7.92086 4.6699 8.16185 4.69479 8.17732 4.69244C8.25857 4.93695 8.4514 5.13087 8.69531 5.21352V7.95327C8.16874 7.98864 7.82502 8.52836 8.01891 9.02104C7.69013 9.11416 7.44846 9.41679 7.44846 9.77496C7.44846 10.2071 7.80006 10.5587 8.23216 10.5587H9.7083C10.1404 10.5587 10.492 10.2071 10.492 9.77496C10.492 9.40941 10.2404 9.10161 9.90127 9.01541C10.0905 8.5234 9.74641 7.98846 9.22265 7.95327V5.21352C9.46657 5.13083 9.6595 4.93684 9.74072 4.69222C9.75938 4.69511 9.99099 4.66737 10.1956 4.84129C10.4497 5.05732 10.9406 5.39285 11.6372 5.50841V5.55749L10.895 7.32869C10.874 7.3321 10.7179 7.30464 10.5934 7.43447C10.4846 7.54792 10.4978 7.68957 10.4984 7.68605C10.4984 8.14115 10.7126 8.44778 11.0339 8.60289C11.1695 8.66758 11.2675 8.81875 11.5168 8.81875H12.2849C12.5241 8.81864 12.6063 8.68677 12.7743 8.59965C13.1495 8.42015 13.2879 8.09207 13.3035 7.68574C13.3115 7.49206 13.1563 7.32862 12.9604 7.32862ZM5.64949 8.29183L5.64945 8.29176C5.6497 8.29176 5.65715 8.29837 5.65715 8.29837C5.65518 8.29671 5.65145 8.29344 5.64949 8.29183ZM6.42211 8.29267C6.42078 8.29373 6.42018 8.29144 6.42028 8.29133C5.29188 8.28877 5.84492 8.33781 5.39256 8.12494C5.28245 8.07294 5.20385 7.973 5.18036 7.85607H6.89229C6.84177 8.10743 6.64564 8.10139 6.42211 8.29267ZM6.47035 7.32862H5.60234L6.03638 6.29285L6.47035 7.32862ZM9.96459 9.77489C9.96459 9.91625 9.84959 10.0312 9.7083 10.0312H8.2322C8.09084 10.0312 7.97587 9.91622 7.97587 9.77489C7.97587 9.63356 8.09087 9.5186 8.2322 9.5186C8.78042 9.5186 9.2172 9.5186 9.7083 9.5186C9.84959 9.5186 9.96459 9.6336 9.96459 9.77489ZM9.426 8.73487C9.426 8.87623 9.311 8.99119 9.16971 8.99119H8.74829C8.60696 8.99119 8.492 8.87619 8.492 8.73487C8.492 8.59354 8.607 8.47858 8.74829 8.47858H9.16971C9.311 8.47858 9.426 8.59354 9.426 8.73487ZM8.95895 4.7296C8.79561 4.7296 8.66269 4.59674 8.66269 4.43333C8.66269 4.27 8.79554 4.13711 8.95895 4.13711C9.12235 4.13711 9.25521 4.26996 9.25521 4.43333C9.25521 4.59674 9.12232 4.7296 8.95895 4.7296ZM11.9009 6.29267L12.335 7.32862H11.4668L11.9009 6.29267ZM11.5141 8.29183C11.5242 8.30044 11.5207 8.29749 11.5215 8.29816C11.5215 8.29816 11.5171 8.29443 11.5141 8.29183ZM12.2867 8.29267C12.286 8.29344 12.2848 8.29144 12.2848 8.29144C11.2897 8.28901 11.6239 8.33524 11.3334 8.16474C11.2056 8.09541 11.0818 8.03948 11.0449 7.856H12.7569C12.706 8.10958 12.5001 8.10954 12.2867 8.29267Z"/>
</mask>
<path d="M12.9604 7.32862H12.9068L12.1646 5.55742V5.54856C12.2017 5.54821 12.239 5.54775 12.2761 5.5461C12.4216 5.53966 12.5343 5.41655 12.5279 5.27107C12.5215 5.12563 12.399 5.01376 12.2529 5.01925C12.2235 5.02058 12.194 5.0209 12.1646 5.02122V4.91997C12.1646 4.77431 12.0466 4.65629 11.9009 4.65629C11.7553 4.65629 11.6373 4.77431 11.6373 4.91997V4.97302C10.5679 4.75986 10.5661 4.16485 9.78406 4.16485H9.73741C9.65437 3.92487 9.4634 3.73499 9.22269 3.6534V3.48559C9.22269 3.33994 9.10467 3.22192 8.95902 3.22192C8.81337 3.22192 8.69535 3.33994 8.69535 3.48559V3.6534C8.45463 3.73499 8.26359 3.92498 8.18055 4.16506C8.15784 4.16878 7.74662 4.12586 7.37745 4.43973C7.1426 4.63942 6.78419 4.8679 6.30005 4.96904V4.92018C6.30005 4.77452 6.18203 4.65651 6.03638 4.65651C5.89073 4.65651 5.77271 4.77452 5.77271 4.92018V5.02234C5.63018 5.02589 5.51568 5.14229 5.51568 5.28566C5.51568 5.42903 5.63015 5.54543 5.77271 5.54898V5.55756L5.0306 7.32862C5.00954 7.33203 4.85337 7.30457 4.72892 7.4344C4.60232 7.56638 4.6263 7.7243 4.65843 7.9332C4.70572 8.21227 4.88322 8.46473 5.16939 8.60285C5.30081 8.66554 5.40195 8.81871 5.65237 8.81871H6.42039C6.60313 8.81871 6.73265 8.7202 6.75673 8.70048C6.82926 8.64103 6.843 8.6339 6.90917 8.60001C7.28168 8.42205 7.42122 8.09323 7.43883 7.68612C7.44368 7.47768 7.28122 7.32865 7.09585 7.32865H7.04216L6.30005 5.55759V5.50472C6.98468 5.38578 7.46773 5.05518 7.71902 4.8415C7.92086 4.6699 8.16185 4.69479 8.17732 4.69244C8.25857 4.93695 8.4514 5.13087 8.69531 5.21352V7.95327C8.16874 7.98864 7.82502 8.52836 8.01891 9.02104C7.69013 9.11416 7.44846 9.41679 7.44846 9.77496C7.44846 10.2071 7.80006 10.5587 8.23216 10.5587H9.7083C10.1404 10.5587 10.492 10.2071 10.492 9.77496C10.492 9.40941 10.2404 9.10161 9.90127 9.01541C10.0905 8.5234 9.74641 7.98846 9.22265 7.95327V5.21352C9.46657 5.13083 9.6595 4.93684 9.74072 4.69222C9.75938 4.69511 9.99099 4.66737 10.1956 4.84129C10.4497 5.05732 10.9406 5.39285 11.6372 5.50841V5.55749L10.895 7.32869C10.874 7.3321 10.7179 7.30464 10.5934 7.43447C10.4846 7.54792 10.4978 7.68957 10.4984 7.68605C10.4984 8.14115 10.7126 8.44778 11.0339 8.60289C11.1695 8.66758 11.2675 8.81875 11.5168 8.81875H12.2849C12.5241 8.81864 12.6063 8.68677 12.7743 8.59965C13.1495 8.42015 13.2879 8.09207 13.3035 7.68574C13.3115 7.49206 13.1563 7.32862 12.9604 7.32862ZM5.64949 8.29183L5.64945 8.29176C5.6497 8.29176 5.65715 8.29837 5.65715 8.29837C5.65518 8.29671 5.65145 8.29344 5.64949 8.29183ZM6.42211 8.29267C6.42078 8.29373 6.42018 8.29144 6.42028 8.29133C5.29188 8.28877 5.84492 8.33781 5.39256 8.12494C5.28245 8.07294 5.20385 7.973 5.18036 7.85607H6.89229C6.84177 8.10743 6.64564 8.10139 6.42211 8.29267ZM6.47035 7.32862H5.60234L6.03638 6.29285L6.47035 7.32862ZM9.96459 9.77489C9.96459 9.91625 9.84959 10.0312 9.7083 10.0312H8.2322C8.09084 10.0312 7.97587 9.91622 7.97587 9.77489C7.97587 9.63356 8.09087 9.5186 8.2322 9.5186C8.78042 9.5186 9.2172 9.5186 9.7083 9.5186C9.84959 9.5186 9.96459 9.6336 9.96459 9.77489ZM9.426 8.73487C9.426 8.87623 9.311 8.99119 9.16971 8.99119H8.74829C8.60696 8.99119 8.492 8.87619 8.492 8.73487C8.492 8.59354 8.607 8.47858 8.74829 8.47858H9.16971C9.311 8.47858 9.426 8.59354 9.426 8.73487ZM8.95895 4.7296C8.79561 4.7296 8.66269 4.59674 8.66269 4.43333C8.66269 4.27 8.79554 4.13711 8.95895 4.13711C9.12235 4.13711 9.25521 4.26996 9.25521 4.43333C9.25521 4.59674 9.12232 4.7296 8.95895 4.7296ZM11.9009 6.29267L12.335 7.32862H11.4668L11.9009 6.29267ZM11.5141 8.29183C11.5242 8.30044 11.5207 8.29749 11.5215 8.29816C11.5215 8.29816 11.5171 8.29443 11.5141 8.29183ZM12.2867 8.29267C12.286 8.29344 12.2848 8.29144 12.2848 8.29144C11.2897 8.28901 11.6239 8.33524 11.3334 8.16474C11.2056 8.09541 11.0818 8.03948 11.0449 7.856H12.7569C12.706 8.10958 12.5001 8.10954 12.2867 8.29267Z" fill="#07834E"/>
<path d="M12.9604 7.32862H12.9068L12.1646 5.55742V5.54856C12.2017 5.54821 12.239 5.54775 12.2761 5.5461C12.4216 5.53966 12.5343 5.41655 12.5279 5.27107C12.5215 5.12563 12.399 5.01376 12.2529 5.01925C12.2235 5.02058 12.194 5.0209 12.1646 5.02122V4.91997C12.1646 4.77431 12.0466 4.65629 11.9009 4.65629C11.7553 4.65629 11.6373 4.77431 11.6373 4.91997V4.97302C10.5679 4.75986 10.5661 4.16485 9.78406 4.16485H9.73741C9.65437 3.92487 9.4634 3.73499 9.22269 3.6534V3.48559C9.22269 3.33994 9.10467 3.22192 8.95902 3.22192C8.81337 3.22192 8.69535 3.33994 8.69535 3.48559V3.6534C8.45463 3.73499 8.26359 3.92498 8.18055 4.16506C8.15784 4.16878 7.74662 4.12586 7.37745 4.43973C7.1426 4.63942 6.78419 4.8679 6.30005 4.96904V4.92018C6.30005 4.77452 6.18203 4.65651 6.03638 4.65651C5.89073 4.65651 5.77271 4.77452 5.77271 4.92018V5.02234C5.63018 5.02589 5.51568 5.14229 5.51568 5.28566C5.51568 5.42903 5.63015 5.54543 5.77271 5.54898V5.55756L5.0306 7.32862C5.00954 7.33203 4.85337 7.30457 4.72892 7.4344C4.60232 7.56638 4.6263 7.7243 4.65843 7.9332C4.70572 8.21227 4.88322 8.46473 5.16939 8.60285C5.30081 8.66554 5.40195 8.81871 5.65237 8.81871H6.42039C6.60313 8.81871 6.73265 8.7202 6.75673 8.70048C6.82926 8.64103 6.843 8.6339 6.90917 8.60001C7.28168 8.42205 7.42122 8.09323 7.43883 7.68612C7.44368 7.47768 7.28122 7.32865 7.09585 7.32865H7.04216L6.30005 5.55759V5.50472C6.98468 5.38578 7.46773 5.05518 7.71902 4.8415C7.92086 4.6699 8.16185 4.69479 8.17732 4.69244C8.25857 4.93695 8.4514 5.13087 8.69531 5.21352V7.95327C8.16874 7.98864 7.82502 8.52836 8.01891 9.02104C7.69013 9.11416 7.44846 9.41679 7.44846 9.77496C7.44846 10.2071 7.80006 10.5587 8.23216 10.5587H9.7083C10.1404 10.5587 10.492 10.2071 10.492 9.77496C10.492 9.40941 10.2404 9.10161 9.90127 9.01541C10.0905 8.5234 9.74641 7.98846 9.22265 7.95327V5.21352C9.46657 5.13083 9.6595 4.93684 9.74072 4.69222C9.75938 4.69511 9.99099 4.66737 10.1956 4.84129C10.4497 5.05732 10.9406 5.39285 11.6372 5.50841V5.55749L10.895 7.32869C10.874 7.3321 10.7179 7.30464 10.5934 7.43447C10.4846 7.54792 10.4978 7.68957 10.4984 7.68605C10.4984 8.14115 10.7126 8.44778 11.0339 8.60289C11.1695 8.66758 11.2675 8.81875 11.5168 8.81875H12.2849C12.5241 8.81864 12.6063 8.68677 12.7743 8.59965C13.1495 8.42015 13.2879 8.09207 13.3035 7.68574C13.3115 7.49206 13.1563 7.32862 12.9604 7.32862ZM5.64949 8.29183L5.64945 8.29176C5.6497 8.29176 5.65715 8.29837 5.65715 8.29837C5.65518 8.29671 5.65145 8.29344 5.64949 8.29183ZM6.42211 8.29267C6.42078 8.29373 6.42018 8.29144 6.42028 8.29133C5.29188 8.28877 5.84492 8.33781 5.39256 8.12494C5.28245 8.07294 5.20385 7.973 5.18036 7.85607H6.89229C6.84177 8.10743 6.64564 8.10139 6.42211 8.29267ZM6.47035 7.32862H5.60234L6.03638 6.29285L6.47035 7.32862ZM9.96459 9.77489C9.96459 9.91625 9.84959 10.0312 9.7083 10.0312H8.2322C8.09084 10.0312 7.97587 9.91622 7.97587 9.77489C7.97587 9.63356 8.09087 9.5186 8.2322 9.5186C8.78042 9.5186 9.2172 9.5186 9.7083 9.5186C9.84959 9.5186 9.96459 9.6336 9.96459 9.77489ZM9.426 8.73487C9.426 8.87623 9.311 8.99119 9.16971 8.99119H8.74829C8.60696 8.99119 8.492 8.87619 8.492 8.73487C8.492 8.59354 8.607 8.47858 8.74829 8.47858H9.16971C9.311 8.47858 9.426 8.59354 9.426 8.73487ZM8.95895 4.7296C8.79561 4.7296 8.66269 4.59674 8.66269 4.43333C8.66269 4.27 8.79554 4.13711 8.95895 4.13711C9.12235 4.13711 9.25521 4.26996 9.25521 4.43333C9.25521 4.59674 9.12232 4.7296 8.95895 4.7296ZM11.9009 6.29267L12.335 7.32862H11.4668L11.9009 6.29267ZM11.5141 8.29183C11.5242 8.30044 11.5207 8.29749 11.5215 8.29816C11.5215 8.29816 11.5171 8.29443 11.5141 8.29183ZM12.2867 8.29267C12.286 8.29344 12.2848 8.29144 12.2848 8.29144C11.2897 8.28901 11.6239 8.33524 11.3334 8.16474C11.2056 8.09541 11.0818 8.03948 11.0449 7.856H12.7569C12.706 8.10958 12.5001 8.10954 12.2867 8.29267Z" stroke="#31C850" stroke-width="0.2" mask="url(#path-1-outside-1)"/>
<path d="M11.4423 11.6308H6.47559C6.30232 11.6308 6.16191 11.7712 6.16191 11.9445C6.16191 12.1177 6.30232 12.2581 6.47559 12.2581H11.4423C11.6156 12.2581 11.756 12.1177 11.756 11.9445C11.756 11.7712 11.6156 11.6308 11.4423 11.6308Z" fill="#07834E" stroke="#31C850" stroke-width="0.1"/>
<path d="M11.4423 12.7382H6.47559C6.30232 12.7382 6.16191 12.8786 6.16191 13.0519C6.16191 13.2251 6.30232 13.3656 6.47559 13.3656H11.4423C11.6156 13.3656 11.756 13.2251 11.756 13.0519C11.756 12.8786 11.6156 12.7382 11.4423 12.7382Z" fill="#07834E" stroke="#31C850" stroke-width="0.1"/>
<path d="M11.4423 13.8459H6.47559C6.30232 13.8459 6.16191 13.9863 6.16191 14.1595C6.16191 14.3328 6.30232 14.4732 6.47559 14.4732H11.4423C11.6156 14.4732 11.756 14.3328 11.756 14.1595C11.756 13.9863 11.6156 13.8459 11.4423 13.8459Z" fill="#07834E" stroke="#31C850" stroke-width="0.1"/>
<path d="M2.45585 16.5454L2.45838 16.5953C2.49423 16.5935 3.24674 16.5939 3.44964 16.5941V17.6379C3.44964 17.9681 3.81477 18.1691 4.09393 17.9919L4.09394 17.9919L4.66739 17.6276L5.23183 17.9862L5.23187 17.9862C5.51536 18.166 5.8851 17.9616 5.8851 17.6272V16.594H14.3472V18.4226H12.1223C11.949 18.4226 11.8086 18.563 11.8086 18.7362C11.8086 18.9095 11.949 19.0499 12.1223 19.0499H12.1245H12.1268H12.1291H12.1315H12.1339H12.1363H12.1388H12.1414H12.144H12.1466H12.1493H12.152H12.1548H12.1576H12.1605H12.1634H12.1663H12.1693H12.1723H12.1754H12.1785H12.1817H12.1849H12.1882H12.1915H12.1948H12.1982H12.2016H12.205H12.2085H12.2121H12.2156H12.2193H12.2229H12.2266H12.2304H12.2342H12.238H12.2418H12.2457H12.2497H12.2537H12.2577H12.2617H12.2658H12.27H12.2741H12.2783H12.2826H12.2869H12.2912H12.2955H12.2999H12.3044H12.3088H12.3134H12.3179H12.3225H12.3271H12.3317H12.3364H12.3411H12.3459H12.3507H12.3555H12.3604H12.3653H12.3702H12.3752H12.3802H12.3852H12.3903H12.3954H12.4005H12.4057H12.4109H12.4161H12.4214H12.4267H12.432H12.4374H12.4428H12.4482H12.4536H12.4591H12.4646H12.4702H12.4758H12.4814H12.487H12.4927H12.4984H12.5041H12.5099H12.5157H12.5215H12.5274H12.5332H12.5392H12.5451H12.5511H12.557H12.5631H12.5691H12.5752H12.5813H12.5874H12.5936H12.5998H12.606H12.6122H12.6185H12.6248H12.6311H12.6374H12.6438H12.6502H12.6566H12.6631H12.6696H12.6761H12.6826H12.6891H12.6957H12.7023H12.7089H12.7155H12.7222H12.7289H12.7356H12.7423H12.7491H12.7559H12.7627H12.7695H12.7764H12.7832H12.7901H12.797H12.804H12.8109H12.8179H12.8249H12.8319H12.839H12.846H12.8531H12.8602H12.8673H12.8745H12.8816H12.8888H12.896H12.9032H12.9104H12.9177H12.925H12.9322H12.9396H12.9469H12.9542H12.9616H12.969H12.9764H12.9838H12.9912H12.9986H13.0061H13.0136H13.0211H13.0286H13.0361H13.0437H13.0512H13.0588H13.0664H13.074H13.0816H13.0892H13.0969H13.1045H13.1122H13.1199H13.1276H13.1353H13.143H13.1508H13.1585H13.1663H13.1741H13.1819H13.1897H13.1975H13.2053H13.2131H13.221H13.2288H13.2367H13.2446H13.2525H13.2604H13.2683H13.2762H13.2842H13.2921H13.3H13.308H13.316H13.324H13.332H13.3399H13.348H13.356H13.364H13.372H13.3801H13.3881H13.3962H13.4042H13.4123H13.4204H13.4284H13.4365H13.4446H13.4527H13.4608H13.4689H13.4771H13.4852H13.4933H13.5014H13.5096H13.5177H13.5259H13.534H13.5422H13.5503H13.5585H13.5667H13.5748H13.583H13.5912H13.5994H13.6076H13.6157H13.6239H13.6321H13.6403H13.6485H13.6567H13.6649H13.6731H13.6813H13.6895H13.6977H13.7059H13.7141H13.7223H13.7305H13.7387H13.7469H13.7551H13.7633H13.7715H13.7797H13.7879H13.7961H13.8043H13.8125H13.8207H13.8289H13.8371H13.8453H13.8534H13.8616H13.8698H13.878H13.8861H13.8943H13.9025H13.9106H13.9188H13.9269H13.9351H13.9432H13.9514H13.9595H13.9676H13.9757H13.9838H13.992H14.0001H14.0082H14.0162H14.0243H14.0324H14.0405H14.0485H14.0566H14.0647H14.0727H14.0807H14.0888H14.0968H14.1048H14.1128H14.1208H14.1288H14.1367H14.1447H14.1527H14.1606H14.1686H14.1765H14.1844H14.1923H14.2002H14.2081H14.216H14.2238H14.2317H14.2395H14.2474H14.2552H14.263H14.2708H14.2786H14.2863H14.2941H14.3019H14.3096H14.3173H14.325H14.3327H14.3404H14.3481H14.3557H14.3633H14.371H14.3786H14.3862H14.3938H14.4013H14.4089H14.4164H14.4239H14.4314H14.4389H14.4464H14.4538H14.4613H14.4687H14.4761H14.4835H14.4909H14.4982H14.5056H14.5129H14.5202H14.5275H14.5347H14.542H14.5492H14.5564H14.5636H14.5708H14.5779H14.585H14.5921H14.5992H14.6063H14.6134H14.6204H14.6274H14.6344H14.6413H14.6483H14.6552H14.6621H14.669H14.6759H14.6827H14.6895H14.6963H14.7031H14.7098H14.7166H14.7233H14.7299H14.7366H14.7432H14.7498H14.7564H14.763H14.7695H14.776H14.7825H14.789H14.7954H14.8018H14.8082H14.8145H14.8209H14.8272H14.8335H14.8397H14.8459H14.8521H14.8583H14.8645H14.8706H14.8767H14.8827H14.8888H14.8948H14.9008H14.9067H14.9127H14.9185H14.9244H14.9302H14.9361H14.9418H14.9476H14.9533H14.959H14.9646H14.9703H14.9759H14.9814H14.987H14.9925H14.998H15.0034H15.0088H15.0142H15.0195H15.0249H15.0301H15.0354H15.0406H15.0458H15.0509H15.0561H15.0611H15.0662H15.0712H15.0762H15.0811H15.0861H15.0909H15.0958H15.1006H15.1054H15.1101H15.1148H15.1195H15.1241H15.1287H15.1333H15.1378H15.1423H15.1468H15.1512H15.1556H15.1599H15.1642H15.1685H15.1727H15.1769H15.1811H15.1852H15.1892H15.1933H15.1973H15.2012H15.2052H15.209H15.2129H15.2167H15.2205H15.2242H15.2279H15.2315H15.2351H15.2387H15.2422H15.2457H15.2491H15.2525H15.2559H15.2592H15.2624H15.2657H15.2689H15.272H15.2751H15.2782H15.2812H15.2842H15.2871H15.29H15.2928H15.2956H15.2984H15.3011H15.3037H15.3063H15.3089H15.3115H15.3139H15.3164C15.8618 19.0499 16.3055 18.6062 16.3055 18.0608V18.0584V18.056V18.0535V18.051V18.0484V18.0458V18.0431V18.0404V18.0377V18.0348V18.032V18.0291V18.0261V18.0231V18.02V18.0169V18.0138V18.0106V18.0073V18.004V18.0007V17.9973V17.9939V17.9904V17.9869V17.9833V17.9797V17.9761V17.9724V17.9686V17.9648V17.961V17.9571V17.9532V17.9492V17.9452V17.9412V17.9371V17.933V17.9288V17.9246V17.9203V17.916V17.9116V17.9072V17.9028V17.8983V17.8938V17.8893V17.8847V17.8801V17.8754V17.8707V17.8659V17.8611V17.8563V17.8514V17.8465V17.8416V17.8366V17.8316V17.8265V17.8214V17.8163V17.8111V17.8059V17.8006V17.7953V17.79V17.7847V17.7793V17.7738V17.7684V17.7629V17.7573V17.7518V17.7462V17.7405V17.7348V17.7291V17.7234V17.7176V17.7118V17.7059V17.7001V17.6941V17.6882V17.6822V17.6762V17.6702V17.6641V17.658V17.6518V17.6457V17.6395V17.6332V17.6269V17.6207V17.6143V17.608V17.6016V17.5952V17.5887V17.5822V17.5757V17.5692V17.5626V17.556V17.5494V17.5428V17.5361V17.5294V17.5227V17.5159V17.5091V17.5023V17.4954V17.4886V17.4817V17.4748V17.4678V17.4608V17.4538V17.4468V17.4398V17.4327V17.4256V17.4185V17.4113V17.4041V17.3969V17.3897V17.3825V17.3752V17.3679V17.3606V17.3532V17.3459V17.3385V17.3311V17.3237V17.3162V17.3087V17.3012V17.2937V17.2862V17.2786V17.2711V17.2635V17.2558V17.2482V17.2406V17.2329V17.2252V17.2175V17.2097V17.202V17.1942V17.1864V17.1786V17.1708V17.1629V17.1551V17.1472V17.1393V17.1314V17.1234V17.1155V17.1075V17.0995V17.0915V17.0835V17.0755V17.0675V17.0594V17.0513V17.0432V17.0351V17.027V17.0189V17.0107V17.0026V16.9944V16.9862V16.978V16.9698V16.9616V16.9533V16.9451V16.9368V16.9285V16.9203V16.912V16.9036V16.8953V16.887V16.8786V16.8703V16.8619V16.8536V16.8452V16.8368V16.8284V16.82V16.8115V16.8031V16.7947V16.7862V16.7778V16.7693V16.7608V16.7523V16.7438V16.7354V16.7268V16.7183V16.7098V16.7013V16.6928V16.6842V16.6757V16.6671V16.6586V16.65V16.6415V16.6329V16.6243V16.6158V16.6072V16.5986V16.59V16.5814V16.5728V16.5642V16.5556V16.547V16.5384V16.5298V16.5212V16.5125V16.5039V16.4953V16.4867V16.4781V16.4694V16.4608V16.4522V16.4436V16.4349V16.4263V16.4177V16.409V16.4004V16.3918V16.3832V16.3745V16.3659V16.3573V16.3487V16.3401V16.3315V16.3228V16.3142V16.3056V16.297V16.2884V16.2798V16.2712V16.2626V16.2541V16.2455V16.2369V16.2283V16.2198V16.2112V16.2026V16.1941V16.1855V16.177V16.1685V16.1599V16.1514V16.1429V16.1344V16.1259V16.1174V16.1089V16.1004V16.0919V16.0835V16.075V16.0666V16.0581V16.0497V16.0413V16.0329V16.0245V16.0161V16.0077V15.9993V15.9909V15.9826V15.9743V15.9659V15.9576V15.9493V15.941V15.9327V15.9244V15.9162V15.9079V15.8997V15.8914V15.8832V15.875V15.8668V15.8587V15.8505V15.8424V15.8342V15.8261V15.818V15.8099V15.8019V15.7938V15.7858V15.7777V15.7697V15.7617V15.7537V15.7458V15.7378V15.7299V15.722V15.7141V15.7062V15.6983V15.6905V15.6827V15.6749V15.6671V15.6593V15.6515V15.6438V15.6361V15.6284V15.6207V15.6131V15.6054V15.5978V15.5902V15.5826V15.5751V15.5675V15.56V15.5525V15.5451V15.5376V15.5302V15.5228V15.5154V15.508V15.5007V15.4934V15.4861V15.4788V15.4716V15.4644V15.4572V15.45V15.4428V15.4357V15.4286V15.4215V15.4145V15.4075V15.4005V15.3935V15.3865V15.3796V15.3727V15.3659V15.359V15.3522V15.3454V15.3387V15.3319V15.3252V15.3185V15.3119V15.3053V15.2987V15.2921V15.2856V15.2791V15.2726V15.2662V15.2597V15.2534V15.247V15.2407V15.2344V15.2281V15.2219V15.2157V15.2095V15.2034V15.1973V15.1912V15.1851V15.1791V15.1732V15.1672V15.1613V15.1554V15.1496V15.1438V15.138V15.1322V15.1265V15.1209V15.1152V15.1096V15.104V15.0985V15.093V15.0875V15.0821V15.0767V15.0714V15.066V15.0607V15.0555V15.0503V15.0451V15.04V15.0349V15.0298V15.0248V15.0198V15.0149V15.01V15.0051V15.0003V14.9955V14.9907V14.986V14.9813V14.9767V14.9721V14.9676V14.9631V14.9586V14.9542V14.9498V14.9454V14.9411V14.9369V14.9327V14.9285V14.9243V14.9203V14.9162V14.9122V14.9082V14.9043V14.9004V14.8966V14.8928V14.8891V14.8854V14.8817V14.8781V14.8746V14.871V14.8676V14.8641V14.8608V14.8574V14.8541V14.8509V14.8477V14.8445V14.8414V14.8384V14.8354V14.8324V14.8295V14.8266V14.8238V14.8211V14.8183V14.8157V14.8131V14.8105V14.808V14.8055V14.8031V14.8007V14.7984V14.7961V14.7939V14.7917V14.7896V14.7875V14.7855V14.7836V14.7817V14.7798V14.778V14.7762V14.7745C16.3055 14.6013 16.1651 14.4609 15.9918 14.4609C15.8185 14.4609 15.6781 14.6013 15.6781 14.7745V15.6061C15.6781 15.7661 15.5732 15.9023 15.4284 15.9492L15.423 15.9496C15.4163 15.95 15.4066 15.9505 15.3937 15.9509C15.368 15.9518 15.3312 15.9526 15.2836 15.9534C15.1886 15.955 15.052 15.9565 14.8796 15.9578C14.5348 15.9604 14.0474 15.9625 13.4644 15.9641C12.2984 15.9673 10.7507 15.9687 9.19851 15.9691C6.27335 15.9698 3.33286 15.967 2.904 15.9666V4.29477C2.904 4.1215 2.76359 3.9811 2.59032 3.9811C2.41706 3.9811 2.27665 4.1215 2.27665 4.29477V15.9837C2.01832 16.0226 1.77875 16.1262 1.57775 16.2764C1.58842 11.3093 1.57877 8.11961 1.57252 6.05438C1.56992 5.19616 1.56791 4.53214 1.56819 4.01545C1.56867 3.12995 1.5759 2.67889 1.59812 2.42393C1.6092 2.29679 1.62379 2.22136 1.64195 2.16643C1.65988 2.11221 1.68185 2.07591 1.71265 2.02531L1.66995 1.99932L1.71261 2.02537C1.83872 1.81881 2.04238 1.66618 2.27658 1.60637V3.06423C2.27658 3.2375 2.41699 3.3779 2.59025 3.3779C2.76352 3.3779 2.90393 3.2375 2.90393 3.06423V1.57738H15.3745C15.5418 1.57738 15.6781 1.71362 15.6781 1.88098V13.5441C15.6781 13.7174 15.8185 13.8578 15.9918 13.8578C16.165 13.8578 16.3054 13.7174 16.3054 13.5441V1.88098C16.3055 1.36758 15.8878 0.95 15.3745 0.95H15.371H15.3673H15.3633H15.3591H15.3546H15.3498H15.3449H15.3396H15.3341H15.3284H15.3225H15.3162H15.3098H15.3031H15.2961H15.2889H15.2815H15.2739H15.266H15.2578H15.2495H15.2409H15.232H15.223H15.2137H15.2041H15.1944H15.1844H15.1742H15.1637H15.1531H15.1422H15.131H15.1197H15.1082H15.0964H15.0844H15.0722H15.0597H15.0471H15.0342H15.0211H15.0078H14.9943H14.9806H14.9667H14.9525H14.9382H14.9237H14.9089H14.8939H14.8788H14.8634H14.8478H14.832H14.8161H14.7999H14.7835H14.7669H14.7502H14.7332H14.7161H14.6987H14.6812H14.6634H14.6455H14.6274H14.6091H14.5906H14.5719H14.5531H14.534H14.5148H14.4954H14.4758H14.456H14.436H14.4159H14.3956H14.3751H14.3545H14.3336H14.3126H14.2914H14.2701H14.2485H14.2268H14.205H14.183H14.1608H14.1384H14.1159H14.0932H14.0703H14.0473H14.0241H14.0008H13.9773H13.9537H13.9299H13.9059H13.8818H13.8575H13.8331H13.8085H13.7838H13.7589H13.7339H13.7087H13.6834H13.6579H13.6323H13.6066H13.5807H13.5547H13.5285H13.5022H13.4757H13.4491H13.4224H13.3955H13.3685H13.3414H13.3141H13.2867H13.2592H13.2315H13.2038H13.1758H13.1478H13.1196H13.0914H13.0629H13.0344H13.0057H12.977H12.9481H12.9191H12.8899H12.8607H12.8313H12.8018H12.7722H12.7425H12.7127H12.6828H12.6527H12.6226H12.5923H12.562H12.5315H12.5009H12.4702H12.4395H12.4086H12.3776H12.3465H12.3153H12.2841H12.2527H12.2212H12.1896H12.158H12.1262H12.0944H12.0625H12.0304H11.9983H11.9661H11.9338H11.9015H11.869H11.8365H11.8038H11.7711H11.7383H11.7055H11.6725H11.6395H11.6064H11.5732H11.54H11.5066H11.4732H11.4398H11.4062H11.3726H11.3389H11.3052H11.2714H11.2375H11.2036H11.1696H11.1355H11.1013H11.0672H11.0329H10.9986H10.9642H10.9298H10.8953H10.8608H10.8262H10.7915H10.7568H10.7221H10.6873H10.6524H10.6175H10.5826H10.5476H10.5126H10.4775H10.4424H10.4072H10.372H10.3368H10.3015H10.2662H10.2308H10.1954H10.16H10.1246H10.0891H10.0535H10.018H9.98239H9.94678H9.91113H9.87547H9.83977H9.80405H9.7683H9.73253H9.69674H9.66093H9.6251H9.58925H9.55338H9.5175H9.4816H9.44568H9.40975H9.37381H9.33785H9.30189H9.26591H9.22993H9.19393H9.15793H9.12193H9.08591H9.0499H9.01388H8.97786H8.94184H8.90582H8.8698H8.83378H8.79776H8.76175H8.72574H8.68974H8.65375H8.61776H8.58178H8.54582H8.50986H8.47392H8.43798H8.40207H8.36616H8.33028H8.29441H8.25855H8.22272H8.18691H8.15111H8.11534H8.07959H8.04387H8.00817H7.9725H7.93685H7.90123H7.86564H7.83008H7.79455H7.75906H7.72359H7.68816H7.65277H7.61741H7.58208H7.5468H7.51155H7.47634H7.44118H7.40605H7.37097H7.33593H7.30094H7.26599H7.23109H7.19624H7.16144H7.12668H7.09198H7.05733H7.02273H6.98819H6.9537H6.91926H6.88488H6.85056H6.8163H6.7821H6.74796H6.71388H6.67987H6.64591H6.61203H6.5782H6.54445H6.51076H6.47714H6.44359H6.41011H6.37671H6.34337H6.31011H6.27693H6.24382H6.21078H6.17783H6.14495H6.11215H6.07944H6.0468H6.01425H5.98178H5.9494H5.9171H5.88489H5.85277H5.82073H5.78878H5.75693H5.72517H5.69349H5.66192H5.63043H5.59905H5.56776H5.53657H5.50547H5.47448H5.44358H5.41279H5.3821H5.35151H5.32103H5.29066H5.26039H5.23023H5.20017H5.17023H5.1404H5.11068H5.08107H5.05157H5.02219H4.99293H4.96378H4.93475H4.90583H4.87704H4.84837H4.81982H4.79139H4.76308H4.7349H4.70685H4.67892H4.65112H4.62345H4.5959H4.56849H4.54121H4.51406H4.48705H4.46017H4.43342H4.40682H4.38034H4.35401H4.32782H4.30177H4.27586H4.25009H4.22446H4.19898H4.17365H4.14846H4.12342H4.09852H4.07378H4.04919H4.02475H4.00046H3.97632H3.95234H3.92852H3.90485H3.88133H3.85798H3.83479H3.81175H3.78888H3.76617H3.74362H3.72124H3.69903H3.67698H3.65509H3.63338H3.61183H3.59046H3.56926H3.54822H3.52737H3.50668H3.48618H3.46584H3.44569H3.42571H3.40592H3.3863H3.36687H3.34761H3.32854H3.30966H3.29096H3.27245H3.25412H3.23598H3.21803H3.20028H3.18271H3.16534H3.14815H3.13117H3.11438H3.09778H3.08138H3.06518H3.04918H3.03338H3.01778H3.00239H2.98719H2.97221H2.95742H2.94284H2.92847H2.91431H2.90036H2.88662H2.87309H2.85977H2.84666H2.83377H2.82109H2.80863H2.79639H2.78436H2.77256H2.76097H2.74961H2.73847H2.72755H2.71685H2.70638H2.69614H2.68613H2.67634H2.66678H2.65745H2.64835H2.63949H2.63086H2.62246H2.6143H2.60637H2.59868H2.59123H2.58402H2.57705H2.57031H2.56383H2.55758H2.55158H2.54582H2.54031H2.53505H2.53004H2.52527H2.52075H2.51649H2.51248H2.50872H2.50521C1.6416 0.95 0.95 1.66463 0.95 2.49168L0.950018 10.0106L0.950035 17.5054C0.950035 18.3371 1.66311 19.05 2.50521 19.05H10.8917C11.0649 19.05 11.2054 18.9096 11.2054 18.7363C11.2054 18.5631 11.065 18.4227 10.8917 18.4227L10.8913 18.4227H10.8901L10.8855 18.4227L10.8674 18.4226L10.797 18.4226L10.5306 18.4224L9.58063 18.4215L6.69928 18.4191L2.50521 18.4155C1.77468 18.4155 1.29398 17.5808 1.7677 16.9614L1.7677 16.9614C1.92862 16.7508 2.17608 16.6103 2.45851 16.5953L2.45585 16.5454ZM2.45585 16.5454C2.15811 16.5612 1.89736 16.7094 1.72798 16.931L3.49964 16.5441L3.49552 16.5441C3.42583 16.544 2.49734 16.5433 2.45585 16.5454ZM15.3198 16.5941C15.4332 16.5913 15.5504 16.5768 15.678 16.5262V18.0609C15.678 18.2603 15.5157 18.4226 15.3163 18.4226H14.9745V16.5916C15.0245 16.5898 15.0736 16.5905 15.1232 16.5918C15.1339 16.592 15.1447 16.5923 15.1555 16.5926C15.2095 16.594 15.2645 16.5955 15.3198 16.5941ZM4.07698 16.5941H5.25772V17.2623C5.20498 17.23 5.15901 17.2001 5.11778 17.1727C5.10171 17.162 5.08621 17.1517 5.07124 17.1416C5.03117 17.1148 4.99482 17.0905 4.96109 17.0697C4.86603 17.0112 4.78367 16.9759 4.66739 16.9759C4.55095 16.9759 4.46838 17.0113 4.37324 17.0699C4.3394 17.0907 4.30294 17.1151 4.26276 17.142C4.24789 17.152 4.2325 17.1623 4.21656 17.1728C4.17541 17.2001 4.12956 17.23 4.07698 17.2622V16.5941Z" fill="#07834E" stroke="#31C850" stroke-width="0.1"/>
</svg>
