<svg width="18" height="18" viewBox="0 0 18 18" fill="none" xmlns="http://www.w3.org/2000/svg">
<mask id="path-1-outside-1" maskUnits="userSpaceOnUse" x="0" y="0" width="18" height="18" fill="black">
<rect fill="white" width="18" height="18"/>
<path d="M14.6579 3.34049C11.5383 0.219838 6.46241 0.219838 3.34289 3.34049C2.24838 4.43537 1.49969 5.81089 1.1777 7.31839C0.864219 8.78626 0.966903 10.3071 1.47462 11.7163C1.53562 11.8855 1.72227 11.9732 1.89138 11.9123C2.0606 11.8513 2.1483 11.6646 2.0873 11.4954C1.62083 10.2006 1.5265 8.8033 1.81458 7.45444C2.1102 6.07024 2.79794 4.80689 3.80339 3.80109C6.66903 0.934471 11.3317 0.934471 14.1974 3.80109C15.562 5.16629 16.326 6.98097 16.3484 8.91096C16.3708 10.8374 15.6531 12.6666 14.3276 14.0614C14.3119 14.0779 14.2964 14.0946 14.2809 14.1112C14.2534 14.1405 14.226 14.17 14.1974 14.1986C11.3317 17.0653 6.66903 17.0653 3.80339 14.1986C3.78814 14.1834 3.77327 14.1679 3.75856 14.1523C3.7578 14.1223 3.75715 14.0926 3.75715 14.0634C3.75715 13.9978 3.7584 13.9325 3.76079 13.8674C3.7616 13.8456 3.76323 13.8241 3.76432 13.8024C3.76643 13.7591 3.76844 13.7158 3.77159 13.6728C3.77349 13.6471 3.77626 13.6217 3.77854 13.5961C3.78196 13.5573 3.78516 13.5185 3.78939 13.4799C3.79238 13.4526 3.79628 13.4256 3.7997 13.3984C3.80432 13.3618 3.80871 13.325 3.81414 13.2886C3.81826 13.2608 3.82315 13.2332 3.82771 13.2056C3.83351 13.17 3.83916 13.1345 3.84573 13.0991C3.85088 13.0712 3.8568 13.0435 3.86244 13.0157C3.86944 12.981 3.87634 12.9463 3.88404 12.9118C3.89028 12.8838 3.89723 12.856 3.90391 12.8282C3.91205 12.7943 3.92013 12.7604 3.92893 12.7267C3.93625 12.6988 3.94418 12.6711 3.95188 12.6434C3.96116 12.6101 3.97039 12.5769 3.98032 12.5438C3.98862 12.5162 3.99753 12.4887 4.00632 12.4612C4.01674 12.4286 4.02716 12.3959 4.03818 12.3635C4.04751 12.3362 4.05728 12.3091 4.06705 12.2819C4.07861 12.2498 4.09022 12.2177 4.10238 12.1857C4.11269 12.1588 4.12338 12.1321 4.13413 12.1053C4.14677 12.0737 4.15953 12.0422 4.17277 12.0109C4.18406 11.9843 4.19567 11.9579 4.2074 11.9316C4.22113 11.9006 4.23502 11.8697 4.24935 11.839C4.26156 11.8129 4.27404 11.7869 4.28669 11.761C4.30156 11.7306 4.31659 11.7002 4.33201 11.67C4.34509 11.6445 4.35838 11.6191 4.3719 11.5938C4.38785 11.5638 4.40408 11.534 4.42063 11.5043C4.43458 11.4793 4.44869 11.4544 4.46302 11.4297C4.48006 11.4004 4.49737 11.3712 4.51501 11.3421C4.52983 11.3176 4.54481 11.2933 4.56 11.2691C4.57813 11.2403 4.59653 11.2117 4.6152 11.1833C4.63083 11.1595 4.64657 11.1358 4.66258 11.1122C4.68174 11.084 4.70133 11.0561 4.72108 11.0282C4.73753 11.005 4.75397 10.9819 4.7708 10.959C4.79104 10.9315 4.81172 10.9042 4.83251 10.877C4.84971 10.8545 4.86686 10.8321 4.88444 10.8098C4.90577 10.7829 4.92759 10.7562 4.94946 10.7297C4.96732 10.7079 4.98517 10.6862 5.00341 10.6648C5.02588 10.6384 5.04884 10.6124 5.07185 10.5864C5.09041 10.5655 5.10886 10.5445 5.12775 10.5238C5.1513 10.4981 5.17534 10.4729 5.19944 10.4476C5.21865 10.4274 5.23776 10.4072 5.2573 10.3872C5.28199 10.3622 5.30723 10.3376 5.33241 10.313C5.35216 10.2937 5.37176 10.2742 5.39184 10.2552C5.41778 10.2307 5.44432 10.2067 5.47075 10.1827C5.49094 10.1644 5.51086 10.1459 5.53132 10.1279C5.55862 10.1038 5.58662 10.0805 5.61446 10.057C5.63487 10.0398 5.65506 10.0223 5.67574 10.0054C5.70455 9.9818 5.73408 9.95894 5.76349 9.93592C5.78401 9.91991 5.8042 9.90351 5.82493 9.88777C5.85592 9.86426 5.88756 9.84157 5.91915 9.81876C5.93906 9.80432 5.9586 9.78956 5.97879 9.77538C6.01364 9.7509 6.04929 9.72728 6.08484 9.70356C6.10237 9.69189 6.11952 9.67978 6.13716 9.66827C6.18351 9.63814 6.23067 9.60898 6.27816 9.58021C6.28554 9.57576 6.2927 9.57098 6.30014 9.56653C6.35506 9.53363 6.41075 9.5017 6.46708 9.47065C6.48635 9.46006 6.50616 9.45013 6.52564 9.43976C6.56303 9.41978 6.60032 9.39964 6.63836 9.38053C6.66273 9.36826 6.6877 9.35675 6.71228 9.34486C6.74333 9.32982 6.77426 9.31462 6.80569 9.30012C7.3959 9.8641 8.18323 10.1834 9.00046 10.1834C9.81769 10.1834 10.6051 9.86404 11.1953 9.30001C12.3474 9.83342 13.2904 10.7905 13.8024 11.9544C13.8748 12.119 14.0668 12.1939 14.2316 12.1214C14.3962 12.0489 14.4709 11.8567 14.3984 11.6921C13.8385 10.419 12.8636 9.40159 11.6296 8.78745C11.9876 8.26208 12.1813 7.64169 12.1813 7.00149C12.1813 5.24697 10.7544 3.81955 9.00046 3.81955C8.82066 3.81955 8.67483 3.96543 8.67483 4.1453C8.67483 4.32516 8.82066 4.47104 9.00046 4.47104C10.3953 4.47104 11.53 5.60621 11.53 7.00149C11.53 7.62541 11.2982 8.22619 10.8774 8.69304C10.8774 8.69309 10.8773 8.69315 10.8773 8.6932C10.3967 9.22623 9.71268 9.53194 9.00041 9.53194C8.28814 9.53194 7.60403 9.22623 7.12356 8.6932C7.12351 8.69309 7.1234 8.69304 7.12329 8.69299C6.70251 8.22597 6.47077 7.62535 6.47077 7.00155C6.47077 6.32052 6.7373 5.68162 7.2213 5.20267C7.34917 5.07612 7.35026 4.86986 7.22375 4.74201C7.09729 4.61405 6.89111 4.61307 6.76325 4.73951C6.15469 5.3416 5.8195 6.14494 5.8195 7.00133C5.8195 7.64088 6.01271 8.26083 6.37015 8.78593C6.36695 8.78751 6.36385 8.78924 6.36071 8.79087C6.33531 8.80358 6.3105 8.81704 6.28532 8.83002C6.24674 8.84999 6.20804 8.86986 6.16999 8.89066C6.14307 8.90532 6.11675 8.92074 6.09011 8.93577C6.05456 8.95592 6.01895 8.97595 5.98389 8.99674C5.9567 9.01292 5.92995 9.02964 5.90303 9.0462C5.86938 9.06694 5.83573 9.08763 5.80257 9.10896C5.77549 9.12639 5.74889 9.14431 5.72214 9.16211C5.68995 9.18356 5.65783 9.20511 5.62613 9.22715C5.59948 9.24572 5.57316 9.26467 5.54684 9.28362C5.5159 9.30593 5.48508 9.32835 5.45463 9.35121C5.42852 9.37081 5.40275 9.39068 5.37702 9.41066C5.34717 9.43384 5.31754 9.45719 5.28823 9.48091C5.26283 9.50143 5.23765 9.52223 5.21258 9.54313C5.18376 9.56723 5.15516 9.59161 5.12682 9.61626C5.10224 9.6376 5.07782 9.65909 5.05361 9.68087C5.02566 9.706 4.99809 9.73141 4.97068 9.75704C4.94702 9.77913 4.92341 9.80128 4.90007 9.82381C4.87299 9.84998 4.84634 9.87653 4.81975 9.90319C4.79707 9.92593 4.77438 9.94863 4.75213 9.9717C4.72581 9.99901 4.69997 10.0268 4.67419 10.0546C4.65265 10.0778 4.63094 10.101 4.60977 10.1246C4.58399 10.1533 4.55892 10.1825 4.53374 10.2117C4.51349 10.2351 4.49309 10.2584 4.47322 10.2821C4.44766 10.3126 4.42291 10.3438 4.398 10.3749C4.37949 10.398 4.36061 10.4208 4.34243 10.4442C4.31627 10.4779 4.29098 10.5122 4.26558 10.5464C4.24962 10.5679 4.23323 10.589 4.2176 10.6107C4.18547 10.6552 4.15437 10.7004 4.12355 10.7458C4.11546 10.7577 4.10688 10.7693 4.09885 10.7813C4.06048 10.8387 4.0232 10.8967 3.98689 10.9553C3.97435 10.9755 3.96257 10.9962 3.95031 11.0166C3.92681 11.0556 3.9032 11.0946 3.88057 11.1342C3.86646 11.1589 3.85311 11.184 3.83938 11.2089C3.81957 11.2448 3.79965 11.2805 3.78065 11.3168C3.76654 11.3436 3.75319 11.3708 3.73946 11.3979C3.72177 11.4329 3.70402 11.4678 3.68703 11.5031C3.67352 11.5313 3.66066 11.5597 3.64758 11.588C3.63151 11.6229 3.61539 11.6578 3.59998 11.693C3.58728 11.722 3.57512 11.7514 3.56291 11.7806C3.5482 11.8158 3.53361 11.8509 3.5196 11.8863C3.50783 11.916 3.49654 11.9459 3.48525 11.9759C3.4719 12.0114 3.45871 12.0469 3.44601 12.0827C3.43526 12.113 3.42484 12.1436 3.41453 12.1741C3.40243 12.21 3.39065 12.246 3.37925 12.2822C3.36954 12.313 3.36015 12.3439 3.35092 12.3748C3.34007 12.4114 3.3296 12.448 3.31945 12.4848C3.31087 12.5159 3.30246 12.547 3.29437 12.5783C3.28477 12.6155 3.27565 12.6528 3.26675 12.6903C3.25931 12.7215 3.25193 12.7528 3.24504 12.7841C3.23668 12.8221 3.22892 12.8603 3.22132 12.8985C3.21508 12.9297 3.20873 12.961 3.20298 12.9925C3.19587 13.0314 3.18946 13.0706 3.18311 13.1099C3.17812 13.1408 3.17286 13.1717 3.16835 13.2028C3.16244 13.2433 3.15744 13.284 3.15234 13.3247C3.1486 13.3549 3.14447 13.385 3.14116 13.4153C3.13649 13.458 3.13291 13.5009 3.12917 13.5439C3.12667 13.5725 3.12369 13.601 3.12162 13.6298C3.11815 13.6777 3.11587 13.7259 3.11354 13.7741C3.1124 13.798 3.11061 13.8218 3.10974 13.8458C3.10713 13.9181 3.10567 13.9907 3.10567 14.0636C3.10567 14.1422 3.10833 14.2166 3.11153 14.2988C3.11229 14.3178 3.11495 14.3362 3.11875 14.3542C3.11907 14.3556 3.11924 14.3571 3.11956 14.3585C3.12358 14.3762 3.12922 14.3933 3.13601 14.4098C3.13666 14.4114 3.13725 14.413 3.13796 14.4147C3.14496 14.431 3.15332 14.4465 3.16276 14.4612C3.16396 14.4631 3.1651 14.4649 3.16629 14.4667C3.176 14.4812 3.1868 14.4949 3.19858 14.5076C3.19945 14.5085 3.20005 14.5096 3.20092 14.5105L3.2439 14.5563C3.27635 14.5911 3.30881 14.6257 3.34268 14.6595C4.90246 16.2198 6.9513 17 9.00019 17C11.0491 17 13.0979 16.2198 14.6577 14.6595C14.6916 14.6257 14.724 14.591 14.7565 14.5563L14.7995 14.5105C16.2425 12.992 17.0238 11.0008 16.9994 8.90363C16.9752 6.8023 16.1435 4.82665 14.6579 3.34049Z"/>
</mask>
<path d="M14.6579 3.34049C11.5383 0.219838 6.46241 0.219838 3.34289 3.34049C2.24838 4.43537 1.49969 5.81089 1.1777 7.31839C0.864219 8.78626 0.966903 10.3071 1.47462 11.7163C1.53562 11.8855 1.72227 11.9732 1.89138 11.9123C2.0606 11.8513 2.1483 11.6646 2.0873 11.4954C1.62083 10.2006 1.5265 8.8033 1.81458 7.45444C2.1102 6.07024 2.79794 4.80689 3.80339 3.80109C6.66903 0.934471 11.3317 0.934471 14.1974 3.80109C15.562 5.16629 16.326 6.98097 16.3484 8.91096C16.3708 10.8374 15.6531 12.6666 14.3276 14.0614C14.3119 14.0779 14.2964 14.0946 14.2809 14.1112C14.2534 14.1405 14.226 14.17 14.1974 14.1986C11.3317 17.0653 6.66903 17.0653 3.80339 14.1986C3.78814 14.1834 3.77327 14.1679 3.75856 14.1523C3.7578 14.1223 3.75715 14.0926 3.75715 14.0634C3.75715 13.9978 3.7584 13.9325 3.76079 13.8674C3.7616 13.8456 3.76323 13.8241 3.76432 13.8024C3.76643 13.7591 3.76844 13.7158 3.77159 13.6728C3.77349 13.6471 3.77626 13.6217 3.77854 13.5961C3.78196 13.5573 3.78516 13.5185 3.78939 13.4799C3.79238 13.4526 3.79628 13.4256 3.7997 13.3984C3.80432 13.3618 3.80871 13.325 3.81414 13.2886C3.81826 13.2608 3.82315 13.2332 3.82771 13.2056C3.83351 13.17 3.83916 13.1345 3.84573 13.0991C3.85088 13.0712 3.8568 13.0435 3.86244 13.0157C3.86944 12.981 3.87634 12.9463 3.88404 12.9118C3.89028 12.8838 3.89723 12.856 3.90391 12.8282C3.91205 12.7943 3.92013 12.7604 3.92893 12.7267C3.93625 12.6988 3.94418 12.6711 3.95188 12.6434C3.96116 12.6101 3.97039 12.5769 3.98032 12.5438C3.98862 12.5162 3.99753 12.4887 4.00632 12.4612C4.01674 12.4286 4.02716 12.3959 4.03818 12.3635C4.04751 12.3362 4.05728 12.3091 4.06705 12.2819C4.07861 12.2498 4.09022 12.2177 4.10238 12.1857C4.11269 12.1588 4.12338 12.1321 4.13413 12.1053C4.14677 12.0737 4.15953 12.0422 4.17277 12.0109C4.18406 11.9843 4.19567 11.9579 4.2074 11.9316C4.22113 11.9006 4.23502 11.8697 4.24935 11.839C4.26156 11.8129 4.27404 11.7869 4.28669 11.761C4.30156 11.7306 4.31659 11.7002 4.33201 11.67C4.34509 11.6445 4.35838 11.6191 4.3719 11.5938C4.38785 11.5638 4.40408 11.534 4.42063 11.5043C4.43458 11.4793 4.44869 11.4544 4.46302 11.4297C4.48006 11.4004 4.49737 11.3712 4.51501 11.3421C4.52983 11.3176 4.54481 11.2933 4.56 11.2691C4.57813 11.2403 4.59653 11.2117 4.6152 11.1833C4.63083 11.1595 4.64657 11.1358 4.66258 11.1122C4.68174 11.084 4.70133 11.0561 4.72108 11.0282C4.73753 11.005 4.75397 10.9819 4.7708 10.959C4.79104 10.9315 4.81172 10.9042 4.83251 10.877C4.84971 10.8545 4.86686 10.8321 4.88444 10.8098C4.90577 10.7829 4.92759 10.7562 4.94946 10.7297C4.96732 10.7079 4.98517 10.6862 5.00341 10.6648C5.02588 10.6384 5.04884 10.6124 5.07185 10.5864C5.09041 10.5655 5.10886 10.5445 5.12775 10.5238C5.1513 10.4981 5.17534 10.4729 5.19944 10.4476C5.21865 10.4274 5.23776 10.4072 5.2573 10.3872C5.28199 10.3622 5.30723 10.3376 5.33241 10.313C5.35216 10.2937 5.37176 10.2742 5.39184 10.2552C5.41778 10.2307 5.44432 10.2067 5.47075 10.1827C5.49094 10.1644 5.51086 10.1459 5.53132 10.1279C5.55862 10.1038 5.58662 10.0805 5.61446 10.057C5.63487 10.0398 5.65506 10.0223 5.67574 10.0054C5.70455 9.9818 5.73408 9.95894 5.76349 9.93592C5.78401 9.91991 5.8042 9.90351 5.82493 9.88777C5.85592 9.86426 5.88756 9.84157 5.91915 9.81876C5.93906 9.80432 5.9586 9.78956 5.97879 9.77538C6.01364 9.7509 6.04929 9.72728 6.08484 9.70356C6.10237 9.69189 6.11952 9.67978 6.13716 9.66827C6.18351 9.63814 6.23067 9.60898 6.27816 9.58021C6.28554 9.57576 6.2927 9.57098 6.30014 9.56653C6.35506 9.53363 6.41075 9.5017 6.46708 9.47065C6.48635 9.46006 6.50616 9.45013 6.52564 9.43976C6.56303 9.41978 6.60032 9.39964 6.63836 9.38053C6.66273 9.36826 6.6877 9.35675 6.71228 9.34486C6.74333 9.32982 6.77426 9.31462 6.80569 9.30012C7.3959 9.8641 8.18323 10.1834 9.00046 10.1834C9.81769 10.1834 10.6051 9.86404 11.1953 9.30001C12.3474 9.83342 13.2904 10.7905 13.8024 11.9544C13.8748 12.119 14.0668 12.1939 14.2316 12.1214C14.3962 12.0489 14.4709 11.8567 14.3984 11.6921C13.8385 10.419 12.8636 9.40159 11.6296 8.78745C11.9876 8.26208 12.1813 7.64169 12.1813 7.00149C12.1813 5.24697 10.7544 3.81955 9.00046 3.81955C8.82066 3.81955 8.67483 3.96543 8.67483 4.1453C8.67483 4.32516 8.82066 4.47104 9.00046 4.47104C10.3953 4.47104 11.53 5.60621 11.53 7.00149C11.53 7.62541 11.2982 8.22619 10.8774 8.69304C10.8774 8.69309 10.8773 8.69315 10.8773 8.6932C10.3967 9.22623 9.71268 9.53194 9.00041 9.53194C8.28814 9.53194 7.60403 9.22623 7.12356 8.6932C7.12351 8.69309 7.1234 8.69304 7.12329 8.69299C6.70251 8.22597 6.47077 7.62535 6.47077 7.00155C6.47077 6.32052 6.7373 5.68162 7.2213 5.20267C7.34917 5.07612 7.35026 4.86986 7.22375 4.74201C7.09729 4.61405 6.89111 4.61307 6.76325 4.73951C6.15469 5.3416 5.8195 6.14494 5.8195 7.00133C5.8195 7.64088 6.01271 8.26083 6.37015 8.78593C6.36695 8.78751 6.36385 8.78924 6.36071 8.79087C6.33531 8.80358 6.3105 8.81704 6.28532 8.83002C6.24674 8.84999 6.20804 8.86986 6.16999 8.89066C6.14307 8.90532 6.11675 8.92074 6.09011 8.93577C6.05456 8.95592 6.01895 8.97595 5.98389 8.99674C5.9567 9.01292 5.92995 9.02964 5.90303 9.0462C5.86938 9.06694 5.83573 9.08763 5.80257 9.10896C5.77549 9.12639 5.74889 9.14431 5.72214 9.16211C5.68995 9.18356 5.65783 9.20511 5.62613 9.22715C5.59948 9.24572 5.57316 9.26467 5.54684 9.28362C5.5159 9.30593 5.48508 9.32835 5.45463 9.35121C5.42852 9.37081 5.40275 9.39068 5.37702 9.41066C5.34717 9.43384 5.31754 9.45719 5.28823 9.48091C5.26283 9.50143 5.23765 9.52223 5.21258 9.54313C5.18376 9.56723 5.15516 9.59161 5.12682 9.61626C5.10224 9.6376 5.07782 9.65909 5.05361 9.68087C5.02566 9.706 4.99809 9.73141 4.97068 9.75704C4.94702 9.77913 4.92341 9.80128 4.90007 9.82381C4.87299 9.84998 4.84634 9.87653 4.81975 9.90319C4.79707 9.92593 4.77438 9.94863 4.75213 9.9717C4.72581 9.99901 4.69997 10.0268 4.67419 10.0546C4.65265 10.0778 4.63094 10.101 4.60977 10.1246C4.58399 10.1533 4.55892 10.1825 4.53374 10.2117C4.51349 10.2351 4.49309 10.2584 4.47322 10.2821C4.44766 10.3126 4.42291 10.3438 4.398 10.3749C4.37949 10.398 4.36061 10.4208 4.34243 10.4442C4.31627 10.4779 4.29098 10.5122 4.26558 10.5464C4.24962 10.5679 4.23323 10.589 4.2176 10.6107C4.18547 10.6552 4.15437 10.7004 4.12355 10.7458C4.11546 10.7577 4.10688 10.7693 4.09885 10.7813C4.06048 10.8387 4.0232 10.8967 3.98689 10.9553C3.97435 10.9755 3.96257 10.9962 3.95031 11.0166C3.92681 11.0556 3.9032 11.0946 3.88057 11.1342C3.86646 11.1589 3.85311 11.184 3.83938 11.2089C3.81957 11.2448 3.79965 11.2805 3.78065 11.3168C3.76654 11.3436 3.75319 11.3708 3.73946 11.3979C3.72177 11.4329 3.70402 11.4678 3.68703 11.5031C3.67352 11.5313 3.66066 11.5597 3.64758 11.588C3.63151 11.6229 3.61539 11.6578 3.59998 11.693C3.58728 11.722 3.57512 11.7514 3.56291 11.7806C3.5482 11.8158 3.53361 11.8509 3.5196 11.8863C3.50783 11.916 3.49654 11.9459 3.48525 11.9759C3.4719 12.0114 3.45871 12.0469 3.44601 12.0827C3.43526 12.113 3.42484 12.1436 3.41453 12.1741C3.40243 12.21 3.39065 12.246 3.37925 12.2822C3.36954 12.313 3.36015 12.3439 3.35092 12.3748C3.34007 12.4114 3.3296 12.448 3.31945 12.4848C3.31087 12.5159 3.30246 12.547 3.29437 12.5783C3.28477 12.6155 3.27565 12.6528 3.26675 12.6903C3.25931 12.7215 3.25193 12.7528 3.24504 12.7841C3.23668 12.8221 3.22892 12.8603 3.22132 12.8985C3.21508 12.9297 3.20873 12.961 3.20298 12.9925C3.19587 13.0314 3.18946 13.0706 3.18311 13.1099C3.17812 13.1408 3.17286 13.1717 3.16835 13.2028C3.16244 13.2433 3.15744 13.284 3.15234 13.3247C3.1486 13.3549 3.14447 13.385 3.14116 13.4153C3.13649 13.458 3.13291 13.5009 3.12917 13.5439C3.12667 13.5725 3.12369 13.601 3.12162 13.6298C3.11815 13.6777 3.11587 13.7259 3.11354 13.7741C3.1124 13.798 3.11061 13.8218 3.10974 13.8458C3.10713 13.9181 3.10567 13.9907 3.10567 14.0636C3.10567 14.1422 3.10833 14.2166 3.11153 14.2988C3.11229 14.3178 3.11495 14.3362 3.11875 14.3542C3.11907 14.3556 3.11924 14.3571 3.11956 14.3585C3.12358 14.3762 3.12922 14.3933 3.13601 14.4098C3.13666 14.4114 3.13725 14.413 3.13796 14.4147C3.14496 14.431 3.15332 14.4465 3.16276 14.4612C3.16396 14.4631 3.1651 14.4649 3.16629 14.4667C3.176 14.4812 3.1868 14.4949 3.19858 14.5076C3.19945 14.5085 3.20005 14.5096 3.20092 14.5105L3.2439 14.5563C3.27635 14.5911 3.30881 14.6257 3.34268 14.6595C4.90246 16.2198 6.9513 17 9.00019 17C11.0491 17 13.0979 16.2198 14.6577 14.6595C14.6916 14.6257 14.724 14.591 14.7565 14.5563L14.7995 14.5105C16.2425 12.992 17.0238 11.0008 16.9994 8.90363C16.9752 6.8023 16.1435 4.82665 14.6579 3.34049Z" fill="#618A6D"/>
<path d="M14.6579 3.34049C11.5383 0.219838 6.46241 0.219838 3.34289 3.34049C2.24838 4.43537 1.49969 5.81089 1.1777 7.31839C0.864219 8.78626 0.966903 10.3071 1.47462 11.7163C1.53562 11.8855 1.72227 11.9732 1.89138 11.9123C2.0606 11.8513 2.1483 11.6646 2.0873 11.4954C1.62083 10.2006 1.5265 8.8033 1.81458 7.45444C2.1102 6.07024 2.79794 4.80689 3.80339 3.80109C6.66903 0.934471 11.3317 0.934471 14.1974 3.80109C15.562 5.16629 16.326 6.98097 16.3484 8.91096C16.3708 10.8374 15.6531 12.6666 14.3276 14.0614C14.3119 14.0779 14.2964 14.0946 14.2809 14.1112C14.2534 14.1405 14.226 14.17 14.1974 14.1986C11.3317 17.0653 6.66903 17.0653 3.80339 14.1986C3.78814 14.1834 3.77327 14.1679 3.75856 14.1523C3.7578 14.1223 3.75715 14.0926 3.75715 14.0634C3.75715 13.9978 3.7584 13.9325 3.76079 13.8674C3.7616 13.8456 3.76323 13.8241 3.76432 13.8024C3.76643 13.7591 3.76844 13.7158 3.77159 13.6728C3.77349 13.6471 3.77626 13.6217 3.77854 13.5961C3.78196 13.5573 3.78516 13.5185 3.78939 13.4799C3.79238 13.4526 3.79628 13.4256 3.7997 13.3984C3.80432 13.3618 3.80871 13.325 3.81414 13.2886C3.81826 13.2608 3.82315 13.2332 3.82771 13.2056C3.83351 13.17 3.83916 13.1345 3.84573 13.0991C3.85088 13.0712 3.8568 13.0435 3.86244 13.0157C3.86944 12.981 3.87634 12.9463 3.88404 12.9118C3.89028 12.8838 3.89723 12.856 3.90391 12.8282C3.91205 12.7943 3.92013 12.7604 3.92893 12.7267C3.93625 12.6988 3.94418 12.6711 3.95188 12.6434C3.96116 12.6101 3.97039 12.5769 3.98032 12.5438C3.98862 12.5162 3.99753 12.4887 4.00632 12.4612C4.01674 12.4286 4.02716 12.3959 4.03818 12.3635C4.04751 12.3362 4.05728 12.3091 4.06705 12.2819C4.07861 12.2498 4.09022 12.2177 4.10238 12.1857C4.11269 12.1588 4.12338 12.1321 4.13413 12.1053C4.14677 12.0737 4.15953 12.0422 4.17277 12.0109C4.18406 11.9843 4.19567 11.9579 4.2074 11.9316C4.22113 11.9006 4.23502 11.8697 4.24935 11.839C4.26156 11.8129 4.27404 11.7869 4.28669 11.761C4.30156 11.7306 4.31659 11.7002 4.33201 11.67C4.34509 11.6445 4.35838 11.6191 4.3719 11.5938C4.38785 11.5638 4.40408 11.534 4.42063 11.5043C4.43458 11.4793 4.44869 11.4544 4.46302 11.4297C4.48006 11.4004 4.49737 11.3712 4.51501 11.3421C4.52983 11.3176 4.54481 11.2933 4.56 11.2691C4.57813 11.2403 4.59653 11.2117 4.6152 11.1833C4.63083 11.1595 4.64657 11.1358 4.66258 11.1122C4.68174 11.084 4.70133 11.0561 4.72108 11.0282C4.73753 11.005 4.75397 10.9819 4.7708 10.959C4.79104 10.9315 4.81172 10.9042 4.83251 10.877C4.84971 10.8545 4.86686 10.8321 4.88444 10.8098C4.90577 10.7829 4.92759 10.7562 4.94946 10.7297C4.96732 10.7079 4.98517 10.6862 5.00341 10.6648C5.02588 10.6384 5.04884 10.6124 5.07185 10.5864C5.09041 10.5655 5.10886 10.5445 5.12775 10.5238C5.1513 10.4981 5.17534 10.4729 5.19944 10.4476C5.21865 10.4274 5.23776 10.4072 5.2573 10.3872C5.28199 10.3622 5.30723 10.3376 5.33241 10.313C5.35216 10.2937 5.37176 10.2742 5.39184 10.2552C5.41778 10.2307 5.44432 10.2067 5.47075 10.1827C5.49094 10.1644 5.51086 10.1459 5.53132 10.1279C5.55862 10.1038 5.58662 10.0805 5.61446 10.057C5.63487 10.0398 5.65506 10.0223 5.67574 10.0054C5.70455 9.9818 5.73408 9.95894 5.76349 9.93592C5.78401 9.91991 5.8042 9.90351 5.82493 9.88777C5.85592 9.86426 5.88756 9.84157 5.91915 9.81876C5.93906 9.80432 5.9586 9.78956 5.97879 9.77538C6.01364 9.7509 6.04929 9.72728 6.08484 9.70356C6.10237 9.69189 6.11952 9.67978 6.13716 9.66827C6.18351 9.63814 6.23067 9.60898 6.27816 9.58021C6.28554 9.57576 6.2927 9.57098 6.30014 9.56653C6.35506 9.53363 6.41075 9.5017 6.46708 9.47065C6.48635 9.46006 6.50616 9.45013 6.52564 9.43976C6.56303 9.41978 6.60032 9.39964 6.63836 9.38053C6.66273 9.36826 6.6877 9.35675 6.71228 9.34486C6.74333 9.32982 6.77426 9.31462 6.80569 9.30012C7.3959 9.8641 8.18323 10.1834 9.00046 10.1834C9.81769 10.1834 10.6051 9.86404 11.1953 9.30001C12.3474 9.83342 13.2904 10.7905 13.8024 11.9544C13.8748 12.119 14.0668 12.1939 14.2316 12.1214C14.3962 12.0489 14.4709 11.8567 14.3984 11.6921C13.8385 10.419 12.8636 9.40159 11.6296 8.78745C11.9876 8.26208 12.1813 7.64169 12.1813 7.00149C12.1813 5.24697 10.7544 3.81955 9.00046 3.81955C8.82066 3.81955 8.67483 3.96543 8.67483 4.1453C8.67483 4.32516 8.82066 4.47104 9.00046 4.47104C10.3953 4.47104 11.53 5.60621 11.53 7.00149C11.53 7.62541 11.2982 8.22619 10.8774 8.69304C10.8774 8.69309 10.8773 8.69315 10.8773 8.6932C10.3967 9.22623 9.71268 9.53194 9.00041 9.53194C8.28814 9.53194 7.60403 9.22623 7.12356 8.6932C7.12351 8.69309 7.1234 8.69304 7.12329 8.69299C6.70251 8.22597 6.47077 7.62535 6.47077 7.00155C6.47077 6.32052 6.7373 5.68162 7.2213 5.20267C7.34917 5.07612 7.35026 4.86986 7.22375 4.74201C7.09729 4.61405 6.89111 4.61307 6.76325 4.73951C6.15469 5.3416 5.8195 6.14494 5.8195 7.00133C5.8195 7.64088 6.01271 8.26083 6.37015 8.78593C6.36695 8.78751 6.36385 8.78924 6.36071 8.79087C6.33531 8.80358 6.3105 8.81704 6.28532 8.83002C6.24674 8.84999 6.20804 8.86986 6.16999 8.89066C6.14307 8.90532 6.11675 8.92074 6.09011 8.93577C6.05456 8.95592 6.01895 8.97595 5.98389 8.99674C5.9567 9.01292 5.92995 9.02964 5.90303 9.0462C5.86938 9.06694 5.83573 9.08763 5.80257 9.10896C5.77549 9.12639 5.74889 9.14431 5.72214 9.16211C5.68995 9.18356 5.65783 9.20511 5.62613 9.22715C5.59948 9.24572 5.57316 9.26467 5.54684 9.28362C5.5159 9.30593 5.48508 9.32835 5.45463 9.35121C5.42852 9.37081 5.40275 9.39068 5.37702 9.41066C5.34717 9.43384 5.31754 9.45719 5.28823 9.48091C5.26283 9.50143 5.23765 9.52223 5.21258 9.54313C5.18376 9.56723 5.15516 9.59161 5.12682 9.61626C5.10224 9.6376 5.07782 9.65909 5.05361 9.68087C5.02566 9.706 4.99809 9.73141 4.97068 9.75704C4.94702 9.77913 4.92341 9.80128 4.90007 9.82381C4.87299 9.84998 4.84634 9.87653 4.81975 9.90319C4.79707 9.92593 4.77438 9.94863 4.75213 9.9717C4.72581 9.99901 4.69997 10.0268 4.67419 10.0546C4.65265 10.0778 4.63094 10.101 4.60977 10.1246C4.58399 10.1533 4.55892 10.1825 4.53374 10.2117C4.51349 10.2351 4.49309 10.2584 4.47322 10.2821C4.44766 10.3126 4.42291 10.3438 4.398 10.3749C4.37949 10.398 4.36061 10.4208 4.34243 10.4442C4.31627 10.4779 4.29098 10.5122 4.26558 10.5464C4.24962 10.5679 4.23323 10.589 4.2176 10.6107C4.18547 10.6552 4.15437 10.7004 4.12355 10.7458C4.11546 10.7577 4.10688 10.7693 4.09885 10.7813C4.06048 10.8387 4.0232 10.8967 3.98689 10.9553C3.97435 10.9755 3.96257 10.9962 3.95031 11.0166C3.92681 11.0556 3.9032 11.0946 3.88057 11.1342C3.86646 11.1589 3.85311 11.184 3.83938 11.2089C3.81957 11.2448 3.79965 11.2805 3.78065 11.3168C3.76654 11.3436 3.75319 11.3708 3.73946 11.3979C3.72177 11.4329 3.70402 11.4678 3.68703 11.5031C3.67352 11.5313 3.66066 11.5597 3.64758 11.588C3.63151 11.6229 3.61539 11.6578 3.59998 11.693C3.58728 11.722 3.57512 11.7514 3.56291 11.7806C3.5482 11.8158 3.53361 11.8509 3.5196 11.8863C3.50783 11.916 3.49654 11.9459 3.48525 11.9759C3.4719 12.0114 3.45871 12.0469 3.44601 12.0827C3.43526 12.113 3.42484 12.1436 3.41453 12.1741C3.40243 12.21 3.39065 12.246 3.37925 12.2822C3.36954 12.313 3.36015 12.3439 3.35092 12.3748C3.34007 12.4114 3.3296 12.448 3.31945 12.4848C3.31087 12.5159 3.30246 12.547 3.29437 12.5783C3.28477 12.6155 3.27565 12.6528 3.26675 12.6903C3.25931 12.7215 3.25193 12.7528 3.24504 12.7841C3.23668 12.8221 3.22892 12.8603 3.22132 12.8985C3.21508 12.9297 3.20873 12.961 3.20298 12.9925C3.19587 13.0314 3.18946 13.0706 3.18311 13.1099C3.17812 13.1408 3.17286 13.1717 3.16835 13.2028C3.16244 13.2433 3.15744 13.284 3.15234 13.3247C3.1486 13.3549 3.14447 13.385 3.14116 13.4153C3.13649 13.458 3.13291 13.5009 3.12917 13.5439C3.12667 13.5725 3.12369 13.601 3.12162 13.6298C3.11815 13.6777 3.11587 13.7259 3.11354 13.7741C3.1124 13.798 3.11061 13.8218 3.10974 13.8458C3.10713 13.9181 3.10567 13.9907 3.10567 14.0636C3.10567 14.1422 3.10833 14.2166 3.11153 14.2988C3.11229 14.3178 3.11495 14.3362 3.11875 14.3542C3.11907 14.3556 3.11924 14.3571 3.11956 14.3585C3.12358 14.3762 3.12922 14.3933 3.13601 14.4098C3.13666 14.4114 3.13725 14.413 3.13796 14.4147C3.14496 14.431 3.15332 14.4465 3.16276 14.4612C3.16396 14.4631 3.1651 14.4649 3.16629 14.4667C3.176 14.4812 3.1868 14.4949 3.19858 14.5076C3.19945 14.5085 3.20005 14.5096 3.20092 14.5105L3.2439 14.5563C3.27635 14.5911 3.30881 14.6257 3.34268 14.6595C4.90246 16.2198 6.9513 17 9.00019 17C11.0491 17 13.0979 16.2198 14.6577 14.6595C14.6916 14.6257 14.724 14.591 14.7565 14.5563L14.7995 14.5105C16.2425 12.992 17.0238 11.0008 16.9994 8.90363C16.9752 6.8023 16.1435 4.82665 14.6579 3.34049Z" stroke="#618A6D" stroke-width="0.2" mask="url(#path-1-outside-1)"/>
</svg>
