<svg width="14" height="10" viewBox="0 0 14 10" fill="none" xmlns="http://www.w3.org/2000/svg">
<path d="M5.56083 0.00243657C5.50803 0.00908915 5.45783 0.0291725 5.41501 0.060767L0.126383 3.94946C0.0871914 3.97838 0.0553382 4.01611 0.033387 4.05959C0.0114359 4.10307 0 4.1511 0 4.1998C0 4.24851 0.0114359 4.29654 0.033387 4.34002C0.0553382 4.3835 0.0871914 4.42122 0.126383 4.45014L5.41501 8.33884C5.46117 8.37289 5.51584 8.3935 5.57299 8.39843C5.63014 8.40335 5.68754 8.39239 5.73884 8.36673C5.79014 8.34108 5.83336 8.30175 5.86371 8.25307C5.89406 8.2044 5.91036 8.14828 5.91081 8.09092V6.53059C6.30499 6.51468 7.18559 6.49147 8.48707 6.7153C10.039 6.98221 11.94 7.59625 13.484 8.94643C13.5353 8.99128 13.5999 9.01807 13.6679 9.02267C13.7358 9.02726 13.8034 9.00943 13.8603 8.97189C13.9171 8.93436 13.9601 8.87919 13.9826 8.81488C14.0051 8.75057 14.0058 8.68067 13.9847 8.61589C12.6858 4.61393 8.73194 2.70638 5.91081 1.94678V0.313532C5.91116 0.269192 5.90202 0.225296 5.88401 0.184776C5.866 0.144256 5.83954 0.108056 5.8064 0.0785965C5.77326 0.0491374 5.7342 0.0270956 5.69185 0.0139621C5.6495 0.000828632 5.60483 -0.0031025 5.56083 0.00243657ZM5.28862 0.926001V2.1801C5.28859 2.2491 5.3115 2.31615 5.35373 2.3707C5.39597 2.42526 5.45514 2.46422 5.52194 2.48148C7.97907 3.10351 11.4079 4.68425 12.9542 7.79441C11.5069 6.8305 9.92555 6.33183 8.59401 6.10283C6.96986 5.8235 5.6836 5.90863 5.58513 5.91325C5.50518 5.91701 5.42975 5.95145 5.37453 6.00939C5.31931 6.06732 5.28854 6.14431 5.28862 6.22435V7.4736L0.836069 4.20223L5.28862 0.926001Z" fill="black"/>
</svg>
