<svg width="13" height="14" viewBox="0 0 13 14" fill="none" xmlns="http://www.w3.org/2000/svg">
<path d="M4.08031 2.64245L4.08032 2.64246L4.08076 2.64218C4.85925 2.15139 5.75611 1.88067 6.68673 1.88067C9.36032 1.88067 11.5432 4.06358 11.5432 6.73717C11.5432 9.41076 9.36032 11.5937 6.68673 11.5937C6.38926 11.5937 6.09161 11.5614 5.80954 11.5125L6.03796 11.0557C6.038 11.0556 6.03803 11.0555 6.03807 11.0555C6.16213 10.8247 5.98484 10.5407 5.71847 10.5583C5.71839 10.5583 5.71831 10.5583 5.71823 10.5583L3.63095 10.6262L3.6305 10.6262C3.34708 10.6439 3.20519 10.9458 3.36449 11.1759L3.36465 11.1761L4.58677 12.8735L4.58695 12.8737C4.74629 13.0862 5.06578 13.0514 5.1726 12.8203C5.17264 12.8203 5.17267 12.8202 5.1727 12.8201L5.42179 12.322C5.84341 12.4222 6.26522 12.4724 6.70371 12.4724C8.23537 12.4724 9.66498 11.8767 10.7541 10.7876C11.8432 9.69845 12.4389 8.26884 12.4389 6.73717L12.4389 6.73701C12.4219 5.18851 11.8263 3.75894 10.7371 2.66981C9.64801 1.58069 8.2184 0.985 6.68673 0.985C5.58072 0.985 4.5256 1.29127 3.6066 1.88684C3.39494 2.01055 3.34343 2.29164 3.46571 2.50126C3.58933 2.71317 3.87059 2.76479 4.08031 2.64245Z" fill="white" stroke="white" stroke-width="0.03"/>
<path d="M6.27778 6.89866C6.27957 6.89986 6.2815 6.90085 6.28354 6.90164C6.28385 6.90242 6.28421 6.90322 6.28462 6.90403C6.28657 6.90793 6.28973 6.91229 6.29475 6.91563C6.29655 6.91683 6.29847 6.91783 6.30051 6.91861C6.30083 6.9194 6.30119 6.92019 6.30159 6.921C6.30354 6.9249 6.3067 6.92926 6.31172 6.93261C6.31508 6.93484 6.31887 6.93637 6.32302 6.93716L6.33268 6.94681C6.33319 6.94914 6.33406 6.95199 6.33554 6.95495C6.33749 6.95885 6.34065 6.96321 6.34567 6.96656C6.34902 6.96879 6.35282 6.97032 6.35697 6.9711L6.37017 6.98431L6.38715 7.00128L6.40412 7.01826L6.41473 7.00765L6.40412 7.01826L6.4211 7.03523L6.42099 7.03534L6.4227 7.03662L8.66325 8.71704L8.66321 8.7171L8.66454 8.7179C8.75041 8.76943 8.83806 8.80491 8.92686 8.80491C9.06684 8.80491 9.19045 8.75215 9.27847 8.62899C9.41877 8.43607 9.38417 8.15503 9.19038 8.01401C9.19035 8.01399 9.19032 8.01397 9.19029 8.01395L7.12566 6.45701V2.79813C7.12566 2.55221 6.93223 2.35878 6.68631 2.35878C6.44039 2.35878 6.24696 2.55221 6.24696 2.79813V6.71909V6.73607V6.75304V6.77002V6.78699V6.80396V6.82094V6.83791V6.85488H6.26196L6.24696 6.8549L6.24696 6.85491L6.24696 6.85495L6.24696 6.85502L6.24697 6.85518L6.24698 6.85557L6.24703 6.85668L6.24743 6.86C6.24786 6.86258 6.24875 6.86624 6.25067 6.87008C6.25262 6.87398 6.25578 6.87834 6.2608 6.88169C6.2626 6.88288 6.26452 6.88388 6.26656 6.88467C6.26688 6.88545 6.26724 6.88625 6.26764 6.88705C6.26959 6.89095 6.27275 6.89531 6.27778 6.89866Z" fill="white" stroke="white" stroke-width="0.03"/>
<path d="M2.49272 4.29736C2.60944 4.09521 2.54018 3.83671 2.33803 3.72C2.13587 3.60328 1.87738 3.67254 1.76067 3.87469C1.64395 4.07684 1.71321 4.33534 1.91536 4.45205C2.11751 4.56877 2.37601 4.49951 2.49272 4.29736Z" fill="white" stroke="white" stroke-width="0.03"/>
<path d="M1.40766 7.14258C1.6411 7.14258 1.83033 6.95335 1.83033 6.71992C1.83033 6.48649 1.6411 6.29726 1.40766 6.29726C1.17423 6.29726 0.985 6.48649 0.985 6.71992C0.985 6.95335 1.17423 7.14258 1.40766 7.14258Z" fill="white" stroke="white" stroke-width="0.03"/>
<path d="M2.32826 9.71787C2.53041 9.60115 2.59967 9.34266 2.48296 9.14051C2.36624 8.93836 2.10775 8.8691 1.9056 8.98581C1.70344 9.10253 1.63419 9.36102 1.7509 9.56317C1.86762 9.76533 2.12611 9.83458 2.32826 9.71787Z" fill="white" stroke="white" stroke-width="0.03"/>
</svg>
